<svg xmlns="http://www.w3.org/2000/svg" xmlns:xlink="http://www.w3.org/1999/xlink" width="200" zoomAndPan="magnify" viewBox="0 0 150 52.499999" height="70" preserveAspectRatio="xMidYMid meet" version="1.0"><defs><g/><clipPath id="1ff3625659"><path d="M 4.421875 11.761719 L 143.347656 11.761719 L 143.347656 41.476562 L 4.421875 41.476562 Z M 4.421875 11.761719 " clip-rule="nonzero"/></clipPath></defs><g clip-path="url(#1ff3625659)"><path fill="#222222" d="M 118.25 17.050781 C 120.304688 16.945312 122.347656 16.789062 124.394531 16.664062 C 128.503906 16.4375 132.570312 16.058594 136.65625 15.746094 C 136.457031 16.796875 136.269531 17.890625 136.859375 18.796875 C 136.859375 18.796875 137.492188 18.714844 138.273438 18.5625 C 139.058594 18.417969 140 18.25 140.628906 18.132812 C 145.9375 19.6875 145.207031 23.339844 142.875 26.277344 C 142.269531 26.898438 141.585938 27.597656 140.808594 28.316406 C 140.152344 28.328125 139.496094 28.34375 138.847656 28.359375 C 135.894531 28.4375 132.988281 28.582031 130.054688 28.828125 C 127.136719 29.007812 124.210938 29.246094 121.242188 29.507812 C 115.320312 29.972656 113.566406 30.492188 107.164062 30.574219 C 98.179688 30.433594 116.082031 29.875 107.164062 30.574219 C 117.753906 30.203125 100.535156 31.339844 111.3125 30.75 C 114.007812 30.613281 112.378906 30.476562 115.058594 30.34375 C 117.746094 30.246094 120.421875 30.148438 123.078125 30.050781 C 125.746094 29.953125 128.390625 29.941406 131.039062 29.898438 C 133.695312 29.835938 136.316406 29.855469 138.953125 29.882812 C 136.96875 31.378906 134.5625 32.648438 131.644531 33.070312 C 124.683594 33.53125 117.824219 33.980469 111.019531 34.425781 C 110.988281 33.925781 105.703125 34.839844 101.027344 35.136719 C 96.355469 35.40625 91.753906 34.484375 87.117188 34.59375 C 77.847656 34.839844 59.386719 37.71875 59.257812 38.050781 C 59.210938 38.054688 59.167969 38.058594 59.125 38.0625 C 59.167969 38.058594 59.210938 38.054688 59.257812 38.050781 C 59.144531 38.34375 59.230469 38.554688 60.421875 38.472656 C 59.230469 38.554688 59.144531 38.34375 59.257812 38.050781 C 78.058594 36.234375 91.34375 35.371094 110.246094 34.484375 C 95.585938 35.464844 85.578125 36.625 71.15625 37.824219 C 56.738281 39.019531 42.242188 40.226562 27.285156 41.144531 C 26.011719 41.222656 23.460938 41.378906 22.1875 41.457031 C 17.03125 40.269531 11.910156 40.074219 6.824219 40.363281 C 8.007812 37.804688 2.738281 33.125 12.960938 33.527344 C 12.945312 33.03125 12.910156 32.035156 12.890625 31.539062 C 7.742188 30.59375 4.199219 28.425781 3.070312 26.191406 C 2.550781 25.082031 2.617188 23.925781 3.550781 22.898438 C 4.519531 21.863281 6.136719 20.964844 8.671875 20.320312 C 20.042969 17.671875 35.367188 18.734375 49.300781 16.792969 C 59.445312 15.617188 69.578125 14.390625 79.765625 14.59375 C 93.792969 15 104.648438 13.207031 118.636719 13.652344 C 121.171875 13.613281 124.605469 12.9375 127.738281 12.441406 C 130.855469 11.90625 133.636719 11.480469 134.957031 12.050781 C 136.808594 12.507812 136.988281 13.546875 136.824219 14.761719 C 132.695312 15.257812 128.59375 15.828125 124.453125 16.222656 C 122.386719 16.433594 120.332031 16.671875 118.265625 16.847656 C 116.203125 17.019531 114.144531 17.191406 112.09375 17.359375 " fill-opacity="1" fill-rule="nonzero"/></g><g fill="#ffde59" fill-opacity="1"><g transform="translate(26.97992, 33.627871)"><g><path d="M 13.503906 -3.753906 C 12.878906 -3.808594 12.195312 -3.835938 11.542969 -3.808594 C 9.578125 -3.695312 7.617188 -3.210938 5.742188 -2.644531 C 7.164062 -6.253906 7.875 -10.089844 9.097656 -13.785156 C 9.695312 -15.578125 10.347656 -17.566406 11.511719 -19.074219 C 11.769531 -19.414062 12.394531 -20.183594 12.933594 -20.039062 C 13.390625 -19.898438 13.160156 -18.734375 13.078125 -18.421875 C 13.191406 -18.820312 13.671875 -20.4375 12.507812 -20.011719 C 11.257812 -19.558594 10.519531 -17.738281 10.035156 -16.628906 C 10.460938 -17.652344 10.945312 -18.789062 11.738281 -19.585938 C 12.082031 -19.898438 12.90625 -20.523438 13.273438 -19.984375 C 13.617188 -19.472656 13.191406 -18.308594 13.046875 -17.824219 C 12.761719 -16.886719 12.394531 -15.949219 11.96875 -15.066406 C 11.96875 -15.121094 12.335938 -16.03125 12.308594 -16.03125 C 12.195312 -16.0625 11.199219 -13.984375 11.199219 -13.957031 L 11.226562 -13.957031 C 11.199219 -13.902344 11.144531 -13.871094 11.144531 -13.871094 C 10.914062 -13.445312 11.371094 -13.246094 11.738281 -13.21875 C 12.308594 -13.160156 12.933594 -13.445312 13.390625 -13.785156 C 14.582031 -14.695312 15.605469 -16.828125 15.519531 -18.335938 C 15.4375 -19.558594 14.980469 -20.4375 13.785156 -21.09375 C 13.132812 -21.460938 12.308594 -21.746094 11.511719 -21.691406 C 10.375 -21.632812 9.496094 -20.894531 8.867188 -19.984375 C 8.386719 -19.246094 8.074219 -18.449219 7.789062 -17.652344 L 7.390625 -16.457031 C 7.277344 -16.144531 6.964844 -15.632812 7.019531 -15.320312 C 7.019531 -15.265625 7.21875 -15.691406 7.25 -15.71875 C 7.078125 -15.179688 6.9375 -14.609375 6.765625 -14.042969 C 6.738281 -14.070312 6.851562 -14.46875 6.824219 -14.46875 C 6.679688 -14.46875 6.195312 -12.648438 6.140625 -12.507812 C 5.855469 -11.484375 5.542969 -10.433594 5.429688 -9.351562 C 5.316406 -8.355469 5.171875 -7.449219 4.917969 -6.480469 C 4.804688 -5.941406 4.632812 -5.429688 4.492188 -4.890625 C 4.40625 -4.519531 3.953125 -3.496094 4.09375 -3.125 C 4.121094 -3.097656 4.148438 -3.097656 4.179688 -3.125 C 4.09375 -2.871094 4.066406 -2.644531 3.980469 -2.417969 C 3.980469 -2.417969 4.121094 -3.011719 4.09375 -3.011719 C 3.953125 -2.929688 3.921875 -2.246094 3.921875 -2.273438 C 3.753906 -1.820312 3.210938 -1.820312 2.785156 -1.621094 C 2.417969 -1.476562 2.105469 -1.25 1.820312 -0.964844 C 1.222656 -0.371094 0.453125 0.683594 0.738281 1.621094 C 0.9375 2.300781 1.707031 2.472656 2.332031 2.386719 C 2.617188 2.332031 3.496094 2.046875 3.441406 1.675781 C 3.410156 1.621094 2.984375 1.90625 2.84375 1.960938 C 3.042969 1.820312 3.269531 1.621094 3.441406 1.449219 C 3.410156 1.535156 3.980469 0.910156 4.035156 0.824219 C 4.347656 0.398438 4.71875 0.226562 5.171875 0 C 5.941406 -0.425781 6.738281 -0.824219 7.5625 -1.109375 C 9.324219 -1.734375 11.257812 -1.789062 12.933594 -2.644531 C 13.359375 -2.84375 14.496094 -3.636719 13.503906 -3.753906 Z M 7.503906 -16.117188 C 7.902344 -17.285156 8.414062 -18.363281 9.152344 -19.359375 C 9.75 -20.183594 10.433594 -20.695312 11.34375 -20.894531 C 9.066406 -20.324219 8.273438 -17.199219 7.390625 -15.265625 C 7.105469 -14.582031 6.851562 -13.902344 6.625 -13.160156 C 6.878906 -14.15625 7.191406 -15.121094 7.503906 -16.117188 Z M 9.011719 -13.902344 L 9.011719 -13.929688 L 9.011719 -13.871094 L 8.355469 -11.910156 C 8.554688 -12.59375 8.785156 -13.246094 9.011719 -13.929688 Z M 2.8125 1.988281 C 2.8125 1.988281 2.8125 1.960938 2.84375 1.960938 Z M 2.8125 1.988281 "/></g></g></g><g fill="#ffde59" fill-opacity="1"><g transform="translate(41.164758, 33.627871)"><g><path d="M 10.886719 -7.019531 C 10.886719 -6.992188 10.886719 -6.992188 10.859375 -7.019531 L 10.859375 -7.050781 C 10.402344 -7.816406 9.808594 -6.765625 9.550781 -6.394531 C 9.066406 -5.742188 8.613281 -5.117188 8.101562 -4.519531 C 7.675781 -4.007812 7.21875 -3.496094 6.878906 -2.957031 C 6.878906 -2.898438 6.824219 -2.757812 6.824219 -2.757812 C 6.707031 -2.585938 6.539062 -2.445312 6.394531 -2.273438 C 6.140625 -2.019531 5.882812 -1.734375 5.601562 -1.476562 C 5.171875 -1.082031 2.785156 1.164062 2.472656 -0.285156 C 2.300781 -0.996094 2.53125 -1.875 2.671875 -2.558594 C 2.757812 -2.929688 2.84375 -3.269531 2.898438 -3.636719 C 2.957031 -3.921875 2.871094 -4.207031 3.011719 -4.492188 C 3.097656 -4.660156 3.125 -4.632812 3.324219 -4.691406 L 3.808594 -4.859375 C 4.121094 -4.976562 4.433594 -5.089844 4.71875 -5.257812 C 5.144531 -5.515625 5.542969 -5.828125 5.914062 -6.140625 C 6.792969 -6.878906 7.730469 -7.761719 8.101562 -8.867188 C 8.300781 -9.496094 8.328125 -10.175781 7.929688 -10.71875 C 7.5625 -11.199219 6.9375 -11.457031 6.367188 -11.570312 C 4.832031 -11.855469 3.667969 -10.972656 2.785156 -9.808594 C 1.707031 -8.472656 0.9375 -6.824219 0.570312 -5.144531 C 0.371094 -4.320312 0.253906 -3.496094 0.113281 -2.644531 C -0.0273438 -1.789062 -0.113281 -0.996094 0.339844 -0.199219 C 0.3125 -0.484375 0.253906 -0.738281 0.253906 -0.996094 C 0.253906 -1.136719 0.3125 -1.277344 0.3125 -1.394531 C 0.3125 -1.449219 0.253906 -1.621094 0.253906 -1.707031 C 0.253906 -1.960938 0.3125 -2.160156 0.371094 -2.417969 C 0.398438 -2.671875 0.371094 -2.929688 0.398438 -3.183594 C 0.425781 -3.46875 0.539062 -3.695312 0.652344 -3.953125 C 0.738281 -4.179688 0.765625 -4.378906 0.851562 -4.605469 C 0.9375 -4.804688 0.996094 -5.03125 1.082031 -5.257812 C 1.109375 -5.402344 1.25 -5.570312 1.335938 -5.742188 C 1.25 -5.484375 1.082031 -5.257812 1.023438 -5.03125 C 0.9375 -4.691406 0.996094 -4.320312 0.964844 -3.980469 C 0.910156 -3.609375 0.796875 -3.242188 0.738281 -2.84375 C 0.683594 -2.472656 0.511719 -2.132812 0.453125 -1.761719 C 0.398438 -1.421875 0.285156 -1.164062 0.3125 -0.824219 C 0.3125 -0.625 0.339844 -0.425781 0.371094 -0.253906 C 0.398438 -0.0273438 0.539062 0.113281 0.683594 0.285156 C 1.164062 0.851562 1.820312 1.308594 2.558594 1.507812 C 3.070312 1.648438 3.523438 1.621094 4.007812 1.363281 C 4.691406 0.996094 5.289062 0.425781 5.800781 -0.113281 C 6.28125 -0.652344 6.652344 -1.25 7.078125 -1.820312 C 7.476562 -2.332031 7.960938 -2.8125 8.355469 -3.324219 L 9.890625 -5.316406 L 10.773438 -6.480469 C 10.914062 -6.652344 11 -6.792969 10.886719 -7.019531 Z M 3.835938 -6.707031 C 3.867188 -6.765625 3.867188 -6.792969 3.867188 -6.792969 C 4.292969 -7.703125 4.605469 -8.671875 5.203125 -9.550781 L 5.714844 -10.234375 C 5.828125 -10.375 6.027344 -10.632812 6.226562 -10.6875 C 6.652344 -10.773438 6.765625 -10.035156 6.738281 -9.75 L 6.625 -9.152344 C 6.59375 -8.984375 6.652344 -8.867188 6.625 -8.726562 C 6.566406 -8.554688 6.425781 -8.472656 6.339844 -8.328125 L 5.855469 -7.703125 C 5.203125 -6.9375 4.378906 -6.28125 3.46875 -5.800781 C 3.609375 -6.113281 3.695312 -6.425781 3.835938 -6.707031 Z M 3.835938 -6.707031 "/></g></g></g><g fill="#ffde59" fill-opacity="1"><g transform="translate(50.005411, 33.627871)"><g><path d="M 13.078125 -7.078125 C 13.078125 -7.078125 13.105469 -7.050781 13.078125 -7.105469 C 12.933594 -7.304688 12.734375 -7.164062 12.535156 -7.105469 C 11.710938 -6.9375 10.859375 -6.738281 10.007812 -6.59375 C 10.320312 -7.617188 10.632812 -8.699219 10.746094 -9.75 C 10.800781 -10.148438 10.832031 -10.574219 10.746094 -10.972656 C 10.6875 -11.226562 10.601562 -11.484375 10.460938 -11.710938 C 10.460938 -11.710938 10.121094 -12.136719 10.207031 -11.910156 L 10.175781 -11.9375 L 10.0625 -12.167969 L 10.175781 -12.054688 C 10.207031 -12.222656 9.722656 -12.535156 9.722656 -12.535156 C 9.011719 -13.246094 8.042969 -13.785156 7.078125 -13.246094 C 6.480469 -12.90625 5.996094 -12.335938 5.601562 -11.769531 C 5.457031 -11.570312 5.316406 -11.34375 5.203125 -11.113281 C 5.089844 -10.886719 4.917969 -10.148438 4.746094 -10.035156 C 4.605469 -9.921875 4.179688 -9.890625 3.980469 -9.777344 C 3.695312 -9.664062 3.441406 -9.523438 3.210938 -9.351562 C 2.671875 -9.011719 2.246094 -8.527344 1.847656 -8.042969 C 1.164062 -7.136719 0.824219 -6.113281 0.339844 -5.203125 C -0.570312 -3.46875 0.425781 -1.195312 2.105469 -0.371094 C 2.644531 -0.113281 3.269531 0 3.835938 -0.0585938 C 4.433594 -0.140625 5.003906 -0.453125 5.457031 -0.796875 C 5.882812 -1.109375 6.824219 -1.675781 6.992188 -2.160156 C 6.992188 -2.1875 6.9375 -2.160156 6.851562 -2.074219 L 7.675781 -3.042969 C 7.703125 -3.011719 7.476562 -2.730469 7.476562 -2.730469 C 7.675781 -2.644531 8.699219 -4.148438 8.8125 -4.265625 C 9.011719 -4.605469 9.210938 -4.976562 9.4375 -5.316406 C 9.636719 -5.570312 9.578125 -5.542969 9.863281 -5.65625 C 9.835938 -5.628906 10.207031 -5.742188 10.261719 -5.742188 C 10.574219 -5.800781 13.902344 -6.027344 13.078125 -7.078125 Z M 3.242188 -1.335938 L 3.210938 -1.335938 C 0.851562 -0.996094 3.582031 -5.996094 3.636719 -6.28125 L 3.46875 -6.027344 C 3.894531 -6.878906 4.292969 -7.5625 4.492188 -7.789062 C 4.804688 -6.367188 6.339844 -5.828125 7.589844 -5.65625 C 6.765625 -4.007812 5.230469 -1.707031 3.242188 -1.335938 Z M 8.839844 -9.210938 C 8.640625 -8.414062 8.472656 -7.363281 8.042969 -6.652344 C 7.902344 -6.367188 7.988281 -6.453125 7.703125 -6.394531 C 7.53125 -6.339844 7.164062 -6.394531 6.992188 -6.425781 C 6.679688 -6.453125 6.3125 -6.507812 6.082031 -6.707031 C 5.683594 -7.050781 5.742188 -7.589844 5.800781 -8.074219 C 5.855469 -8.554688 5.996094 -9.011719 6.167969 -9.464844 C 6.253906 -9.636719 6.792969 -10.546875 6.707031 -10.71875 C 6.679688 -10.800781 6.367188 -10.289062 6.339844 -10.261719 C 6.507812 -10.574219 6.679688 -10.746094 6.824219 -10.945312 C 6.792969 -10.945312 6.824219 -10.972656 6.851562 -11.03125 L 6.851562 -11 L 6.878906 -11.058594 C 6.878906 -11.058594 6.878906 -11.085938 6.90625 -11.085938 C 7.335938 -11.65625 8.386719 -12.933594 8.953125 -12.054688 C 9.378906 -11.3125 8.984375 -9.921875 8.839844 -9.210938 Z M 6.878906 -11.058594 L 6.90625 -11.085938 C 6.90625 -11.058594 6.878906 -11.058594 6.878906 -11.058594 Z M 6.878906 -11.058594 "/></g></g></g><g fill="#ffffff" fill-opacity="1"><g transform="translate(61.116802, 33.627871)"><g><path d="M 17.054688 -20.980469 C 16.65625 -21.320312 16.175781 -21.546875 15.664062 -21.746094 C 14.382812 -22.285156 13.160156 -22.515625 11.796875 -22.171875 C 10.488281 -21.832031 9.238281 -21.148438 8.242188 -20.238281 C 7.5625 -19.613281 6.367188 -18.5625 6.226562 -17.566406 L 6.425781 -17.851562 C 6.140625 -17.3125 5.941406 -16.773438 5.828125 -16.261719 C 5.800781 -16.261719 5.882812 -16.714844 5.914062 -16.714844 C 5.457031 -16.714844 5.601562 -14.980469 5.628906 -14.726562 C 5.683594 -13.558594 5.996094 -12.367188 6.453125 -11.285156 C 7.078125 -9.808594 7.761719 -8.355469 8.328125 -6.878906 L 8.839844 -5.601562 C 8.898438 -5.402344 8.984375 -5.171875 9.066406 -4.976562 C 9.097656 -4.976562 9.210938 -4.746094 9.210938 -4.777344 C 9.238281 -4.546875 9.296875 -4.378906 9.351562 -4.179688 C 9.296875 -4.320312 9.183594 -4.519531 9.183594 -4.632812 C 9.125 -4.433594 9.296875 -4.179688 9.351562 -4.035156 C 9.410156 -3.753906 9.4375 -3.496094 9.4375 -3.210938 C 9.378906 -2.472656 9.125 -1.761719 8.753906 -1.136719 C 8.015625 0.0859375 6.792969 1.082031 5.429688 1.507812 C 4.433594 1.789062 3.210938 1.789062 2.757812 0.710938 C 2.359375 -0.171875 2.53125 -1.25 2.730469 -2.160156 C 2.84375 -2.671875 2.984375 -3.183594 3.210938 -3.667969 C 3.382812 -4.121094 4.292969 -5.34375 4.035156 -5.800781 C 3.410156 -6.90625 1.308594 -4.121094 1.023438 -3.667969 C -0.171875 -1.734375 -0.738281 1.421875 1.707031 2.671875 C 3.410156 3.523438 5.65625 3.382812 7.363281 2.699219 C 7.960938 2.472656 10.546875 1.394531 10.519531 0.539062 L 9.949219 0.9375 C 11.910156 -0.765625 12.707031 -2.84375 11.9375 -5.402344 C 11.570312 -6.59375 10.886719 -7.5625 10.234375 -8.613281 C 9.75 -9.464844 9.609375 -10.289062 9.210938 -11.171875 C 9.75 -10.089844 10.402344 -9.039062 10.972656 -7.960938 C 9.808594 -10.632812 7.5625 -13.816406 9.066406 -16.800781 C 9.75 -18.136719 10.972656 -19.246094 12.308594 -19.898438 C 13.078125 -20.269531 13.984375 -20.582031 14.867188 -20.550781 C 15.917969 -20.46875 15.691406 -19.785156 15.691406 -19.074219 C 15.75 -19.5 16.003906 -19.957031 15.578125 -20.382812 C 15.179688 -20.722656 14.527344 -20.609375 14.042969 -20.523438 C 12.933594 -20.324219 11.910156 -19.871094 11.03125 -19.214844 C 11.65625 -19.699219 12.367188 -20.097656 13.105469 -20.351562 C 13.757812 -20.582031 14.726562 -20.863281 15.378906 -20.582031 C 17 -19.839844 14.925781 -16.742188 14.15625 -15.691406 C 14.296875 -15.949219 14.527344 -16.429688 14.582031 -16.488281 C 14.183594 -16.515625 13.390625 -14.527344 13.191406 -14.414062 C 12.507812 -13.703125 13.332031 -13.617188 13.902344 -13.957031 C 14.527344 -14.328125 15.039062 -14.925781 15.519531 -15.40625 C 16.175781 -16.089844 16.773438 -16.800781 17.285156 -17.566406 C 17.625 -18.078125 18.25 -18.902344 17.910156 -19.527344 C 17.679688 -20.070312 17.539062 -20.582031 17.054688 -20.980469 Z M 1.164062 2.046875 C -0.3125 0.199219 0.371094 -2.246094 1.707031 -4.066406 C 0.539062 -2.386719 0.0585938 0.652344 1.164062 2.046875 Z M 8.5 -14.496094 C 8.527344 -14.355469 8.5 -14.214844 8.5 -14.097656 Z M 8.5 -14.496094 "/></g></g></g><g fill="#ffffff" fill-opacity="1"><g transform="translate(75.30164, 33.627871)"><g><path d="M 14.097656 -6.992188 C 13.957031 -6.992188 13.757812 -6.707031 13.671875 -6.625 C 13.273438 -6.226562 12.933594 -5.769531 12.59375 -5.34375 C 11.65625 -4.265625 10.71875 -3.15625 9.695312 -2.160156 C 9.4375 -1.933594 8.785156 -1.164062 8.414062 -1.421875 C 8.1875 -1.5625 8.386719 -2.472656 8.414062 -2.671875 C 8.472656 -2.929688 8.984375 -4.265625 8.8125 -4.433594 C 8.726562 -4.492188 8.585938 -4.066406 8.554688 -4.035156 C 9.011719 -5.628906 9.921875 -7.449219 10.660156 -9.011719 C 11.085938 -9.863281 11.625 -10.914062 10.914062 -11.796875 C 9.664062 -13.332031 8.101562 -11.371094 7.25 -10.460938 C 6.878906 -10.0625 3.296875 -5.683594 3.355469 -5.65625 C 3.355469 -5.65625 3.609375 -5.96875 3.980469 -6.394531 C 3.441406 -5.683594 2.929688 -4.976562 2.445312 -4.234375 C 2.757812 -5.402344 3.097656 -6.539062 3.46875 -7.675781 C 3.667969 -8.242188 3.835938 -8.839844 4.035156 -9.4375 C 4.265625 -10.0625 4.433594 -10.320312 4.917969 -10.773438 C 5.742188 -11.511719 6.539062 -12.308594 7.277344 -13.160156 C 7.5625 -13.503906 7.761719 -13.902344 8.042969 -14.214844 C 8.300781 -14.46875 8.671875 -14.695312 8.953125 -15.007812 C 10.402344 -16.714844 11.570312 -18.847656 12.535156 -20.835938 C 12.960938 -21.773438 13.359375 -22.742188 13.644531 -23.734375 C 13.703125 -23.964844 14.328125 -26.578125 14.183594 -26.578125 C 14.15625 -26.578125 14.15625 -26.550781 14.128906 -26.492188 C 14.15625 -26.949219 14.128906 -27.460938 13.957031 -27.914062 C 13.984375 -27.914062 14.128906 -27.488281 14.128906 -27.488281 C 14.296875 -27.601562 13.785156 -28.484375 13.671875 -28.597656 C 13.417969 -28.851562 13.046875 -28.996094 12.679688 -28.996094 C 11.9375 -29.050781 11.257812 -28.652344 10.6875 -28.226562 C 9.609375 -27.402344 8.839844 -26.179688 8.042969 -25.070312 C 7.589844 -24.445312 7.164062 -23.820312 6.765625 -23.167969 C 6.480469 -22.742188 5.855469 -21.972656 5.855469 -21.460938 C 5.882812 -21.433594 5.914062 -21.433594 5.914062 -21.433594 L 5.570312 -20.78125 C 5.570312 -20.78125 5.742188 -21.292969 5.769531 -21.320312 C 5.628906 -21.234375 5.484375 -20.636719 5.484375 -20.609375 C 4.378906 -18.449219 3.210938 -16.375 2.445312 -14.070312 C 1.5625 -11.484375 0.910156 -8.8125 0.425781 -6.140625 C 0.199219 -4.917969 -0.0859375 -3.582031 0.0273438 -2.332031 C 0.0273438 -1.988281 0.0585938 -1.59375 0.3125 -1.308594 C 0.625 -0.910156 1.277344 -0.765625 1.648438 -1.164062 C 1.761719 -1.308594 1.761719 -1.394531 1.820312 -1.535156 L 2.332031 -2.445312 C 3.011719 -3.496094 3.835938 -4.464844 4.492188 -5.542969 C 4.578125 -5.714844 4.660156 -5.914062 4.777344 -6.054688 C 4.917969 -6.226562 4.976562 -6.140625 5.144531 -6.28125 C 5.628906 -6.679688 5.996094 -7.277344 6.394531 -7.761719 C 7.21875 -8.785156 8.042969 -9.949219 9.097656 -10.800781 L 8.273438 -8.8125 L 8.355469 -8.898438 L 7.929688 -7.929688 C 7.902344 -7.960938 8.015625 -8.214844 8.015625 -8.242188 C 7.902344 -8.242188 7.363281 -7.136719 7.304688 -7.019531 C 6.964844 -6.339844 6.59375 -5.65625 6.394531 -4.945312 C 6.226562 -4.265625 6.027344 -3.582031 5.828125 -2.898438 C 5.742188 -2.472656 5.65625 -2.046875 5.683594 -1.621094 C 5.683594 -1.507812 5.914062 -0.484375 5.996094 -0.570312 L 5.996094 -0.683594 C 6.054688 -0.511719 6.113281 -0.371094 6.195312 -0.226562 L 6.027344 -0.484375 C 5.941406 -0.285156 6.707031 0.371094 6.792969 0.453125 C 7.21875 0.882812 7.648438 1.164062 8.300781 1.195312 C 8.839844 1.222656 9.125 1.023438 9.523438 0.652344 C 10.601562 -0.398438 11.371094 -1.847656 12.195312 -3.097656 C 12.648438 -3.753906 13.105469 -4.433594 13.53125 -5.117188 C 13.644531 -5.257812 14.414062 -6.851562 14.296875 -6.824219 C 14.46875 -6.851562 14.15625 -6.992188 14.097656 -6.992188 Z M 11.625 -26.125 L 11.625 -26.152344 C 11.625 -26.152344 11.65625 -26.152344 11.65625 -26.179688 L 11.65625 -26.152344 C 11.683594 -26.210938 11.710938 -26.265625 11.683594 -26.238281 C 11.910156 -26.578125 12.480469 -27.601562 12.878906 -27.261719 C 13.273438 -26.921875 12.90625 -25.726562 12.792969 -25.300781 C 12.566406 -24.417969 12.222656 -23.566406 11.882812 -22.742188 C 11.199219 -21.148438 10.347656 -19.644531 9.410156 -18.164062 C 8.953125 -17.453125 8.472656 -16.742188 7.988281 -16.0625 C 7.730469 -15.71875 7.476562 -15.378906 7.191406 -15.039062 L 6.964844 -14.78125 L 7.476562 -15.292969 L 8.613281 -16.886719 C 9.238281 -17.738281 9.835938 -18.675781 10.402344 -19.613281 C 8.953125 -17.054688 7.191406 -14.640625 5.144531 -12.480469 L 5.996094 -14.726562 C 6.082031 -14.894531 6.679688 -16.574219 6.679688 -16.574219 C 6.625 -16.542969 6.539062 -16.402344 6.453125 -16.261719 C 7.136719 -17.824219 8.015625 -19.445312 8.8125 -21.007812 C 9.695312 -22.710938 10.574219 -24.476562 11.597656 -26.09375 C 11.597656 -26.09375 11.625 -26.09375 11.625 -26.125 Z M 4.492188 -12.195312 C 4.746094 -13.730469 5.457031 -15.179688 5.96875 -16.65625 C 6.425781 -17.910156 7.164062 -19.046875 7.730469 -20.238281 C 7.988281 -20.808594 10.71875 -26.011719 10.773438 -25.980469 C 11 -25.839844 7.503906 -19.160156 7.136719 -18.363281 C 6.824219 -17.765625 6.539062 -17.199219 6.3125 -16.542969 C 6.113281 -15.917969 5.769531 -15.40625 5.542969 -14.808594 C 5.429688 -14.527344 4.292969 -11.542969 4.378906 -11.511719 C 4.320312 -11.511719 4.433594 -11.96875 4.464844 -12.109375 Z M 6.453125 -14.183594 C 6.507812 -14.242188 6.566406 -14.355469 6.652344 -14.441406 C 6.566406 -14.355469 6.507812 -14.269531 6.453125 -14.183594 Z M 11.625 -26.125 L 11.625 -26.152344 L 11.65625 -26.152344 Z M 4.492188 -12.167969 C 4.492188 -12.136719 4.464844 -12.109375 4.464844 -12.109375 C 4.464844 -12.136719 4.492188 -12.136719 4.492188 -12.167969 Z M 4.492188 -12.167969 "/></g></g></g><g fill="#ffffff" fill-opacity="1"><g transform="translate(87.553474, 33.627871)"><g><path d="M 11.65625 -6.90625 C 11.484375 -7.648438 10.800781 -6.652344 10.660156 -6.480469 L 9.097656 -4.378906 L 7.5625 -2.359375 L 6.738281 -1.308594 C 6.652344 -1.195312 6.027344 -0.398438 6.082031 -0.398438 C 6.140625 -0.453125 6.226562 -0.453125 6.3125 -0.539062 C 5.882812 -0.0859375 4.320312 1.335938 4.035156 0.996094 C 3.808594 0.710938 4.433594 -0.484375 4.519531 -0.765625 C 4.832031 -1.59375 5.117188 -2.445312 5.457031 -3.242188 C 5.828125 -4.066406 6.253906 -4.890625 6.59375 -5.714844 C 6.9375 -6.59375 6.425781 -6.90625 5.601562 -7.105469 C 5.230469 -7.191406 4.777344 -7.191406 4.347656 -7.25 C 4.347656 -7.21875 4.378906 -7.21875 4.378906 -7.21875 C 4.746094 -7.164062 5.289062 -7.136719 5.742188 -6.992188 C 5.058594 -7.191406 4.207031 -7.105469 3.667969 -7.25 C 3.296875 -7.335938 3.070312 -7.335938 3.125 -7.761719 C 3.183594 -8.328125 3.78125 -8.925781 3.980469 -9.464844 C 3.980469 -9.4375 3.78125 -8.925781 3.808594 -8.925781 C 3.953125 -8.867188 4.179688 -9.664062 4.179688 -9.777344 C 4.148438 -9.921875 3.808594 -10.347656 3.78125 -10.175781 L 3.835938 -10.089844 C 2.472656 -11.03125 0.851562 -9.097656 1.136719 -7.703125 C 1.195312 -7.503906 1.308594 -7.390625 1.394531 -7.164062 C 1.449219 -6.992188 1.394531 -6.792969 1.5625 -6.566406 C 2.160156 -5.828125 3.242188 -5.800781 4.09375 -5.96875 C 3.953125 -5.769531 2.445312 -2.585938 2.53125 -2.558594 L 2.332031 -1.847656 C 2.300781 -1.875 2.417969 -2.105469 2.359375 -2.105469 C 2.160156 -2.132812 1.761719 -0.484375 1.734375 -0.339844 C 1.621094 0.339844 1.648438 0.9375 1.933594 1.5625 C 2.105469 1.960938 2.300781 2.300781 2.671875 2.53125 C 3.011719 2.757812 3.441406 2.871094 3.835938 2.785156 C 3.980469 2.730469 4.519531 2.359375 4.378906 2.386719 L 4.578125 2.300781 C 4.546875 2.332031 4.519531 2.359375 4.519531 2.386719 C 4.605469 2.417969 5.914062 1.363281 6.082031 1.25 C 6.992188 0.484375 7.730469 -0.453125 8.414062 -1.394531 C 9.097656 -2.359375 9.808594 -3.324219 10.460938 -4.292969 C 10.773438 -4.746094 11.058594 -5.203125 11.285156 -5.683594 C 11.457031 -6.027344 11.738281 -6.507812 11.65625 -6.90625 Z M 3.15625 -3.496094 C 3.355469 -4.007812 3.582031 -4.492188 3.835938 -4.976562 C 3.894531 -5.058594 4.292969 -6.082031 4.492188 -6.140625 C 4.347656 -6.054688 3.753906 -4.660156 3.609375 -4.40625 L 3.070312 -3.15625 C 2.785156 -2.472656 2.472656 -1.761719 2.273438 -1.023438 C 2.472656 -1.875 2.8125 -2.699219 3.15625 -3.496094 Z M 2.472656 1.960938 C 2.644531 2.1875 2.871094 2.417969 3.183594 2.53125 C 2.929688 2.445312 2.699219 2.300781 2.53125 2.132812 C 2.558594 2.132812 2.558594 2.160156 2.558594 2.1875 C 2.386719 1.960938 2.160156 1.476562 2.132812 1.394531 C 2.046875 1.050781 2.019531 0.652344 2.046875 0.3125 C 2.046875 0.0273438 2.074219 -0.199219 2.132812 -0.453125 L 2.132812 -0.425781 C 2.074219 -0.0585938 2.046875 0.3125 2.074219 0.710938 L 2.074219 0.851562 C 2.046875 0.824219 2.046875 0.796875 2.046875 0.796875 C 2.046875 0.796875 2.046875 0.824219 2.074219 0.882812 L 2.074219 0.910156 L 2.1875 1.507812 L 2.105469 1.136719 C 2.160156 1.308594 2.300781 1.621094 2.445312 1.933594 L 2.417969 1.90625 C 2.417969 1.933594 2.445312 1.960938 2.472656 1.988281 Z M 3.269531 -7.417969 C 3.410156 -7.304688 3.667969 -7.277344 3.921875 -7.25 C 3.695312 -7.277344 3.496094 -7.335938 3.355469 -7.449219 C 3.355469 -7.449219 3.183594 -7.589844 3.15625 -7.648438 C 3.15625 -7.589844 3.210938 -7.449219 3.269531 -7.417969 Z M 6.253906 -5.203125 L 5.65625 -3.953125 L 6.253906 -5.230469 Z M 2.160156 -0.539062 C 2.160156 -0.511719 2.132812 -0.484375 2.132812 -0.453125 L 2.132812 -0.484375 C 2.132812 -0.511719 2.160156 -0.511719 2.160156 -0.539062 Z M 6.28125 -5.289062 L 6.28125 -5.257812 L 6.253906 -5.257812 Z M 6.28125 -5.289062 L 6.28125 -5.257812 L 6.253906 -5.257812 Z M 2.1875 -0.910156 C 2.1875 -0.9375 2.21875 -0.964844 2.21875 -1.023438 C 2.21875 -0.964844 2.1875 -0.9375 2.1875 -0.910156 Z M 2.300781 1.707031 C 2.300781 1.707031 2.332031 1.734375 2.332031 1.761719 C 2.332031 1.734375 2.300781 1.734375 2.300781 1.707031 Z M 3.183594 -7.703125 C 3.15625 -7.703125 3.15625 -7.675781 3.15625 -7.675781 Z M 3.183594 -7.703125 "/></g></g></g><g fill="#ffffff" fill-opacity="1"><g transform="translate(97.133214, 33.627871)"><g><path d="M 10.886719 -7.019531 C 10.886719 -6.992188 10.886719 -6.992188 10.859375 -7.019531 L 10.859375 -7.050781 C 10.402344 -7.816406 9.808594 -6.765625 9.550781 -6.394531 C 9.066406 -5.742188 8.613281 -5.117188 8.101562 -4.519531 C 7.675781 -4.007812 7.21875 -3.496094 6.878906 -2.957031 C 6.878906 -2.898438 6.824219 -2.757812 6.824219 -2.757812 C 6.707031 -2.585938 6.539062 -2.445312 6.394531 -2.273438 C 6.140625 -2.019531 5.882812 -1.734375 5.601562 -1.476562 C 5.171875 -1.082031 2.785156 1.164062 2.472656 -0.285156 C 2.300781 -0.996094 2.53125 -1.875 2.671875 -2.558594 C 2.757812 -2.929688 2.84375 -3.269531 2.898438 -3.636719 C 2.957031 -3.921875 2.871094 -4.207031 3.011719 -4.492188 C 3.097656 -4.660156 3.125 -4.632812 3.324219 -4.691406 L 3.808594 -4.859375 C 4.121094 -4.976562 4.433594 -5.089844 4.71875 -5.257812 C 5.144531 -5.515625 5.542969 -5.828125 5.914062 -6.140625 C 6.792969 -6.878906 7.730469 -7.761719 8.101562 -8.867188 C 8.300781 -9.496094 8.328125 -10.175781 7.929688 -10.71875 C 7.5625 -11.199219 6.9375 -11.457031 6.367188 -11.570312 C 4.832031 -11.855469 3.667969 -10.972656 2.785156 -9.808594 C 1.707031 -8.472656 0.9375 -6.824219 0.570312 -5.144531 C 0.371094 -4.320312 0.253906 -3.496094 0.113281 -2.644531 C -0.0273438 -1.789062 -0.113281 -0.996094 0.339844 -0.199219 C 0.3125 -0.484375 0.253906 -0.738281 0.253906 -0.996094 C 0.253906 -1.136719 0.3125 -1.277344 0.3125 -1.394531 C 0.3125 -1.449219 0.253906 -1.621094 0.253906 -1.707031 C 0.253906 -1.960938 0.3125 -2.160156 0.371094 -2.417969 C 0.398438 -2.671875 0.371094 -2.929688 0.398438 -3.183594 C 0.425781 -3.46875 0.539062 -3.695312 0.652344 -3.953125 C 0.738281 -4.179688 0.765625 -4.378906 0.851562 -4.605469 C 0.9375 -4.804688 0.996094 -5.03125 1.082031 -5.257812 C 1.109375 -5.402344 1.25 -5.570312 1.335938 -5.742188 C 1.25 -5.484375 1.082031 -5.257812 1.023438 -5.03125 C 0.9375 -4.691406 0.996094 -4.320312 0.964844 -3.980469 C 0.910156 -3.609375 0.796875 -3.242188 0.738281 -2.84375 C 0.683594 -2.472656 0.511719 -2.132812 0.453125 -1.761719 C 0.398438 -1.421875 0.285156 -1.164062 0.3125 -0.824219 C 0.3125 -0.625 0.339844 -0.425781 0.371094 -0.253906 C 0.398438 -0.0273438 0.539062 0.113281 0.683594 0.285156 C 1.164062 0.851562 1.820312 1.308594 2.558594 1.507812 C 3.070312 1.648438 3.523438 1.621094 4.007812 1.363281 C 4.691406 0.996094 5.289062 0.425781 5.800781 -0.113281 C 6.28125 -0.652344 6.652344 -1.25 7.078125 -1.820312 C 7.476562 -2.332031 7.960938 -2.8125 8.355469 -3.324219 L 9.890625 -5.316406 L 10.773438 -6.480469 C 10.914062 -6.652344 11 -6.792969 10.886719 -7.019531 Z M 3.835938 -6.707031 C 3.867188 -6.765625 3.867188 -6.792969 3.867188 -6.792969 C 4.292969 -7.703125 4.605469 -8.671875 5.203125 -9.550781 L 5.714844 -10.234375 C 5.828125 -10.375 6.027344 -10.632812 6.226562 -10.6875 C 6.652344 -10.773438 6.765625 -10.035156 6.738281 -9.75 L 6.625 -9.152344 C 6.59375 -8.984375 6.652344 -8.867188 6.625 -8.726562 C 6.566406 -8.554688 6.425781 -8.472656 6.339844 -8.328125 L 5.855469 -7.703125 C 5.203125 -6.9375 4.378906 -6.28125 3.46875 -5.800781 C 3.609375 -6.113281 3.695312 -6.425781 3.835938 -6.707031 Z M 3.835938 -6.707031 "/></g></g></g><g fill="#ffffff" fill-opacity="1"><g transform="translate(105.973866, 33.627871)"><g><path d="M 16.574219 -6.792969 C 16.488281 -7.703125 15.605469 -6.824219 15.320312 -6.566406 C 14.839844 -6.167969 14.328125 -5.828125 13.84375 -5.429688 C 12.449219 -4.378906 11.144531 -3.269531 9.835938 -2.160156 C 10.375 -3.695312 11.171875 -5.230469 12.023438 -6.625 C 12.195312 -6.90625 12.335938 -7.164062 12.28125 -7.503906 C 12.136719 -8.273438 11.113281 -8.585938 10.433594 -8.472656 C 9.835938 -8.355469 9.777344 -8.074219 9.664062 -7.675781 C 9.4375 -6.964844 8.613281 -6.339844 8.128906 -5.800781 C 7.929688 -5.570312 6.59375 -3.953125 6.566406 -3.953125 C 6.652344 -3.953125 6.707031 -4.007812 6.765625 -4.035156 C 6.140625 -3.382812 5.171875 -2.699219 4.40625 -2.105469 C 4.09375 -1.847656 3.183594 -0.9375 2.699219 -1.109375 C 1.335938 -1.535156 4.148438 -6.992188 4.066406 -7.019531 C 3.980469 -7.050781 3.070312 -4.804688 2.871094 -4.292969 C 3.324219 -5.683594 3.921875 -7.050781 4.546875 -8.355469 C 4.519531 -8.242188 4.433594 -8.015625 4.492188 -8.015625 C 4.578125 -7.988281 5.003906 -8.925781 4.917969 -8.953125 C 4.890625 -8.953125 4.859375 -8.925781 4.832031 -8.925781 C 4.917969 -9.039062 5.058594 -9.097656 5.117188 -9.265625 C 5.203125 -9.636719 4.777344 -10.035156 4.464844 -10.148438 C 3.78125 -10.433594 2.984375 -10.035156 2.671875 -9.378906 C 2.585938 -9.265625 2.5 -9.066406 2.445312 -9.011719 C 2.359375 -8.839844 2.21875 -8.785156 2.105469 -8.613281 C 1.789062 -8.074219 1.621094 -7.449219 1.394531 -6.878906 C 1.308594 -6.625 0.3125 -3.78125 0.453125 -3.753906 L 0.511719 -3.808594 C 0.453125 -3.609375 0.425781 -3.382812 0.398438 -3.183594 C 0.339844 -3.210938 0.425781 -3.382812 0.371094 -3.382812 C 0.0859375 -3.410156 -0.0273438 -1.59375 0 -1.394531 C 0.0585938 -0.824219 0.425781 -0.113281 0.964844 0.171875 C 1.222656 0.3125 1.5625 0.371094 1.875 0.3125 C 1.988281 0.3125 2.53125 0.0859375 2.332031 0.0859375 L 2.5 0.0273438 L 2.445312 0.0859375 C 2.472656 0.113281 3.496094 -0.339844 3.667969 -0.398438 C 4.492188 -0.738281 5.203125 -1.394531 5.800781 -2.019531 L 7.675781 -3.894531 C 8.101562 -4.320312 8.472656 -4.976562 8.925781 -5.316406 C 8.671875 -4.519531 8.414062 -3.722656 8.1875 -2.929688 C 7.875 -1.988281 7.703125 -0.824219 7.25 0.0273438 C 6.878906 0.710938 5.941406 1.335938 5.402344 1.875 C 4.632812 2.585938 3.867188 3.296875 3.15625 4.035156 C 2.160156 5.089844 1.277344 6.28125 0.398438 7.449219 C -0.511719 8.671875 -1.761719 10.402344 -0.625 11.882812 C 0.140625 12.933594 1.5625 13.589844 2.84375 13.246094 C 4.007812 12.960938 4.464844 11.996094 5.03125 11.085938 C 6.851562 8.074219 7.847656 4.578125 8.898438 1.25 C 9.066406 0.765625 9.183594 -0.0859375 9.464844 -0.484375 C 9.75 -0.882812 10.320312 -1.222656 10.660156 -1.535156 C 11.511719 -2.300781 12.394531 -3.042969 13.273438 -3.753906 L 15.75 -5.714844 C 16.117188 -5.996094 16.628906 -6.253906 16.574219 -6.792969 Z M 4.347656 7.960938 L 4.347656 7.988281 L 4.234375 8.214844 L 4.234375 8.242188 C 4.207031 8.242188 4.207031 8.273438 4.207031 8.273438 C 4.207031 8.300781 4.179688 8.355469 4.179688 8.355469 C 3.894531 9.011719 3.554688 9.664062 3.183594 10.289062 C 2.871094 10.800781 2.445312 11.625 1.847656 11.824219 C 0.710938 12.222656 0.625 10.347656 0.796875 9.722656 C 1.222656 8.1875 2.359375 6.851562 3.324219 5.628906 C 4.320312 4.347656 5.371094 3.183594 6.566406 2.074219 C 5.882812 4.035156 5.203125 6.027344 4.347656 7.960938 Z M 5.996094 7.5625 C 6.113281 7.21875 6.3125 6.851562 6.507812 6.507812 C 6.339844 7.019531 6.195312 7.53125 5.882812 8.042969 L 5.628906 8.5 C 5.742188 8.1875 5.855469 7.847656 5.996094 7.5625 Z M 6.964844 4.464844 L 6.453125 5.714844 C 6.507812 5.457031 6.566406 5.171875 6.679688 5.003906 C 6.792969 4.746094 7.019531 4.292969 6.964844 3.980469 C 6.992188 4.121094 7.019531 4.320312 6.964844 4.464844 Z M 6.054688 6.878906 L 6.167969 6.707031 C 6.140625 6.765625 6.113281 6.824219 6.054688 6.878906 Z M 6.054688 6.878906 "/></g></g></g><g fill="#222222" fill-opacity="1"><g transform="translate(74.421811, 47.097781)"><g/></g></g></svg>