<svg xmlns="http://www.w3.org/2000/svg" xmlns:xlink="http://www.w3.org/1999/xlink" width="500" zoomAndPan="magnify" viewBox="0 0 375 374.999991" height="500" preserveAspectRatio="xMidYMid meet" version="1.0"><defs><g/><clipPath id="1ccd692097"><path d="M 19.574219 19.574219 L 355.425781 19.574219 L 355.425781 355.425781 L 19.574219 355.425781 Z M 19.574219 19.574219 " clip-rule="nonzero"/></clipPath><clipPath id="18f28bbeaa"><path d="M 187.5 19.574219 C 193 19.574219 198.488281 19.84375 203.960938 20.382812 C 209.433594 20.921875 214.867188 21.726562 220.261719 22.800781 C 225.65625 23.871094 230.984375 25.207031 236.246094 26.804688 C 241.507812 28.398438 246.683594 30.25 251.761719 32.355469 C 256.84375 34.460938 261.808594 36.808594 266.660156 39.402344 C 271.511719 41.992188 276.222656 44.816406 280.796875 47.875 C 285.367188 50.929688 289.78125 54.203125 294.03125 57.691406 C 298.28125 61.179688 302.351562 64.867188 306.242188 68.757812 C 310.132812 72.648438 313.820312 76.714844 317.308594 80.96875 C 320.796875 85.21875 324.070312 89.632812 327.125 94.203125 C 330.183594 98.777344 333.003906 103.488281 335.597656 108.339844 C 338.191406 113.191406 340.539062 118.15625 342.644531 123.238281 C 344.75 128.316406 346.601562 133.492188 348.195312 138.753906 C 349.792969 144.015625 351.128906 149.34375 352.199219 154.738281 C 353.273438 160.132812 354.078125 165.566406 354.617188 171.039062 C 355.15625 176.511719 355.425781 182 355.425781 187.5 C 355.425781 193 355.15625 198.488281 354.617188 203.960938 C 354.078125 209.433594 353.273438 214.867188 352.199219 220.261719 C 351.128906 225.65625 349.792969 230.984375 348.195312 236.246094 C 346.601562 241.507812 344.75 246.683594 342.644531 251.761719 C 340.539062 256.84375 338.191406 261.808594 335.597656 266.660156 C 333.003906 271.511719 330.183594 276.222656 327.125 280.796875 C 324.070312 285.367188 320.796875 289.78125 317.308594 294.03125 C 313.820312 298.28125 310.132812 302.351562 306.242188 306.242188 C 302.351562 310.132812 298.28125 313.820312 294.03125 317.308594 C 289.78125 320.796875 285.367188 324.070312 280.796875 327.125 C 276.222656 330.183594 271.511719 333.003906 266.660156 335.597656 C 261.808594 338.191406 256.84375 340.539062 251.761719 342.644531 C 246.683594 344.75 241.507812 346.601562 236.246094 348.195312 C 230.984375 349.792969 225.65625 351.128906 220.261719 352.199219 C 214.867188 353.273438 209.433594 354.078125 203.960938 354.617188 C 198.488281 355.15625 193 355.425781 187.5 355.425781 C 182 355.425781 176.511719 355.15625 171.039062 354.617188 C 165.566406 354.078125 160.132812 353.273438 154.738281 352.199219 C 149.34375 351.128906 144.015625 349.792969 138.753906 348.195312 C 133.492188 346.601562 128.316406 344.75 123.238281 342.644531 C 118.15625 340.539062 113.191406 338.191406 108.339844 335.597656 C 103.488281 333.003906 98.777344 330.183594 94.203125 327.125 C 89.632812 324.070312 85.21875 320.796875 80.96875 317.308594 C 76.714844 313.820312 72.648438 310.132812 68.757812 306.242188 C 64.867188 302.351562 61.179688 298.28125 57.691406 294.03125 C 54.203125 289.78125 50.929688 285.367188 47.875 280.796875 C 44.816406 276.222656 41.992188 271.511719 39.402344 266.660156 C 36.808594 261.808594 34.460938 256.84375 32.355469 251.761719 C 30.25 246.683594 28.398438 241.507812 26.804688 236.246094 C 25.207031 230.984375 23.871094 225.65625 22.800781 220.261719 C 21.726562 214.867188 20.921875 209.433594 20.382812 203.960938 C 19.84375 198.488281 19.574219 193 19.574219 187.5 C 19.574219 182 19.84375 176.511719 20.382812 171.039062 C 20.921875 165.566406 21.726562 160.132812 22.800781 154.738281 C 23.871094 149.34375 25.207031 144.015625 26.804688 138.753906 C 28.398438 133.492188 30.25 128.316406 32.355469 123.238281 C 34.460938 118.15625 36.808594 113.191406 39.402344 108.339844 C 41.992188 103.488281 44.816406 98.777344 47.875 94.203125 C 50.929688 89.632812 54.203125 85.21875 57.691406 80.96875 C 61.179688 76.714844 64.867188 72.648438 68.757812 68.757812 C 72.648438 64.867188 76.714844 61.179688 80.96875 57.691406 C 85.21875 54.203125 89.632812 50.929688 94.203125 47.875 C 98.777344 44.816406 103.488281 41.992188 108.339844 39.402344 C 113.191406 36.808594 118.15625 34.460938 123.238281 32.355469 C 128.316406 30.25 133.492188 28.398438 138.753906 26.804688 C 144.015625 25.207031 149.34375 23.871094 154.738281 22.800781 C 160.132812 21.726562 165.566406 20.921875 171.039062 20.382812 C 176.511719 19.84375 182 19.574219 187.5 19.574219 L 187.5 53.160156 C 183.101562 53.160156 178.710938 53.375 174.332031 53.804688 C 169.953125 54.238281 165.605469 54.882812 161.292969 55.738281 C 156.976562 56.597656 152.714844 57.664062 148.503906 58.941406 C 144.292969 60.21875 140.15625 61.699219 136.089844 63.382812 C 132.023438 65.066406 128.050781 66.945312 124.171875 69.019531 C 120.292969 71.09375 116.523438 73.355469 112.863281 75.800781 C 109.207031 78.242188 105.675781 80.859375 102.273438 83.652344 C 98.875 86.445312 95.617188 89.394531 92.507812 92.507812 C 89.394531 95.617188 86.445312 98.875 83.652344 102.273438 C 80.859375 105.675781 78.242188 109.207031 75.800781 112.863281 C 73.355469 116.523438 71.09375 120.292969 69.019531 124.171875 C 66.945312 128.050781 65.066406 132.023438 63.382812 136.089844 C 61.699219 140.15625 60.21875 144.292969 58.941406 148.503906 C 57.664062 152.714844 56.597656 156.976562 55.738281 161.292969 C 54.882812 165.605469 54.238281 169.953125 53.804688 174.332031 C 53.375 178.710938 53.160156 183.101562 53.160156 187.5 C 53.160156 191.898438 53.375 196.289062 53.804688 200.667969 C 54.238281 205.046875 54.882812 209.394531 55.738281 213.707031 C 56.597656 218.023438 57.664062 222.285156 58.941406 226.496094 C 60.21875 230.707031 61.699219 234.84375 63.382812 238.910156 C 65.066406 242.976562 66.945312 246.949219 69.019531 250.828125 C 71.09375 254.707031 73.355469 258.476562 75.800781 262.136719 C 78.242188 265.792969 80.859375 269.324219 83.652344 272.726562 C 86.445312 276.125 89.394531 279.382812 92.507812 282.492188 C 95.617188 285.605469 98.875 288.554688 102.273438 291.347656 C 105.675781 294.140625 109.207031 296.757812 112.863281 299.199219 C 116.523438 301.644531 120.292969 303.90625 124.171875 305.980469 C 128.050781 308.054688 132.023438 309.933594 136.089844 311.617188 C 140.15625 313.300781 144.292969 314.78125 148.503906 316.058594 C 152.714844 317.335938 156.976562 318.402344 161.292969 319.261719 C 165.605469 320.117188 169.953125 320.761719 174.332031 321.195312 C 178.710938 321.625 183.101562 321.839844 187.5 321.839844 C 191.898438 321.839844 196.289062 321.625 200.667969 321.195312 C 205.046875 320.761719 209.394531 320.117188 213.707031 319.261719 C 218.023438 318.402344 222.285156 317.335938 226.496094 316.058594 C 230.707031 314.78125 234.84375 313.300781 238.910156 311.617188 C 242.976562 309.933594 246.949219 308.054688 250.828125 305.980469 C 254.707031 303.90625 258.476562 301.644531 262.136719 299.199219 C 265.792969 296.757812 269.324219 294.140625 272.726562 291.347656 C 276.125 288.554688 279.382812 285.605469 282.492188 282.492188 C 285.605469 279.382812 288.554688 276.125 291.347656 272.726562 C 294.140625 269.324219 296.757812 265.792969 299.199219 262.136719 C 301.644531 258.476562 303.90625 254.707031 305.980469 250.828125 C 308.054688 246.949219 309.933594 242.976562 311.617188 238.910156 C 313.300781 234.84375 314.78125 230.707031 316.058594 226.496094 C 317.335938 222.285156 318.402344 218.023438 319.261719 213.707031 C 320.117188 209.394531 320.761719 205.046875 321.195312 200.667969 C 321.625 196.289062 321.839844 191.898438 321.839844 187.5 C 321.839844 183.101562 321.625 178.710938 321.195312 174.332031 C 320.761719 169.953125 320.117188 165.605469 319.261719 161.292969 C 318.402344 156.976562 317.335938 152.714844 316.058594 148.503906 C 314.78125 144.292969 313.300781 140.15625 311.617188 136.089844 C 309.933594 132.023438 308.054688 128.050781 305.980469 124.171875 C 303.90625 120.292969 301.644531 116.523438 299.199219 112.863281 C 296.757812 109.207031 294.140625 105.675781 291.347656 102.273438 C 288.554688 98.875 285.605469 95.617188 282.492188 92.507812 C 279.382812 89.394531 276.125 86.445312 272.726562 83.652344 C 269.324219 80.859375 265.792969 78.242188 262.136719 75.800781 C 258.476562 73.355469 254.707031 71.09375 250.828125 69.019531 C 246.949219 66.945312 242.976562 65.066406 238.910156 63.382812 C 234.84375 61.699219 230.707031 60.21875 226.496094 58.941406 C 222.285156 57.664062 218.023438 56.597656 213.707031 55.738281 C 209.394531 54.882812 205.046875 54.238281 200.667969 53.804688 C 196.289062 53.375 191.898438 53.160156 187.5 53.160156 Z M 187.5 19.574219 " clip-rule="nonzero"/></clipPath><clipPath id="c7b64bdd86"><path d="M 19 20 L 356 20 L 356 356 L 19 356 Z M 19 20 " clip-rule="nonzero"/></clipPath><clipPath id="08929987ac"><path d="M 206.160156 20.613281 C 209.308594 20.964844 212.441406 21.40625 215.566406 21.933594 C 218.691406 22.464844 221.796875 23.082031 224.886719 23.789062 C 227.972656 24.492188 231.039062 25.285156 234.085938 26.164062 C 237.128906 27.042969 240.144531 28.007812 243.132812 29.054688 C 246.125 30.105469 249.082031 31.238281 252.007812 32.457031 C 254.929688 33.671875 257.820312 34.972656 260.671875 36.351562 C 263.523438 37.734375 266.332031 39.195312 269.101562 40.734375 C 271.871094 42.273438 274.59375 43.890625 277.273438 45.582031 C 279.949219 47.277344 282.578125 49.042969 285.15625 50.886719 C 287.730469 52.730469 290.253906 54.644531 292.722656 56.628906 C 295.195312 58.613281 297.605469 60.667969 299.957031 62.789062 C 302.308594 64.910156 304.601562 67.097656 306.832031 69.347656 C 309.058594 71.601562 311.222656 73.914062 313.320312 76.285156 C 315.421875 78.660156 317.449219 81.089844 319.410156 83.582031 C 321.371094 86.070312 323.257812 88.613281 325.074219 91.207031 C 326.894531 93.800781 328.632812 96.449219 330.300781 99.140625 C 331.96875 101.835938 333.558594 104.574219 335.070312 107.359375 C 336.582031 110.144531 338.015625 112.96875 339.367188 115.832031 C 340.71875 118.699219 341.988281 121.601562 343.175781 124.535156 C 344.363281 127.472656 345.46875 130.441406 346.488281 133.441406 C 347.507812 136.441406 348.441406 139.46875 349.289062 142.519531 C 350.140625 145.574219 350.902344 148.648438 351.574219 151.742188 C 352.25 154.835938 352.835938 157.949219 353.335938 161.078125 C 353.835938 164.207031 354.242188 167.347656 354.5625 170.5 C 354.886719 173.652344 355.117188 176.808594 355.257812 179.976562 C 355.398438 183.140625 355.453125 186.308594 355.414062 189.476562 C 355.378906 192.644531 355.25 195.808594 355.035156 198.96875 C 354.820312 202.128906 354.511719 205.28125 354.117188 208.425781 C 353.722656 211.570312 353.238281 214.699219 352.667969 217.816406 C 352.097656 220.929688 351.4375 224.027344 350.691406 227.105469 C 349.941406 230.1875 349.109375 233.242188 348.1875 236.273438 C 347.269531 239.304688 346.261719 242.308594 345.171875 245.28125 C 344.082031 248.257812 342.910156 251.199219 341.652344 254.105469 C 340.394531 257.015625 339.058594 259.886719 337.640625 262.71875 C 336.21875 265.550781 334.722656 268.339844 333.144531 271.089844 C 331.566406 273.835938 329.914062 276.539062 328.183594 279.191406 C 326.453125 281.847656 324.648438 284.449219 322.773438 287.003906 C 320.894531 289.554688 318.949219 292.050781 316.929688 294.492188 C 314.910156 296.933594 312.824219 299.316406 310.671875 301.640625 C 308.515625 303.964844 306.300781 306.226562 304.019531 308.425781 C 301.738281 310.625 299.394531 312.753906 296.992188 314.820312 C 294.589844 316.886719 292.132812 318.882812 289.617188 320.808594 C 287.101562 322.738281 284.535156 324.589844 281.914062 326.371094 C 279.292969 328.152344 276.625 329.859375 273.910156 331.488281 C 271.191406 333.121094 268.433594 334.671875 265.628906 336.144531 C 262.824219 337.621094 259.980469 339.011719 257.097656 340.328125 C 254.210938 341.640625 251.292969 342.871094 248.339844 344.019531 C 245.386719 345.164062 242.40625 346.230469 239.390625 347.207031 C 236.378906 348.1875 233.339844 349.082031 230.277344 349.886719 C 227.214844 350.695312 224.128906 351.414062 221.023438 352.046875 C 217.921875 352.679688 214.800781 353.222656 211.664062 353.679688 C 208.53125 354.136719 205.382812 354.503906 202.226562 354.78125 C 199.070312 355.058594 195.910156 355.246094 192.742188 355.34375 C 189.578125 355.445312 186.410156 355.453125 183.242188 355.375 C 180.074219 355.292969 176.914062 355.121094 173.753906 354.863281 C 170.597656 354.605469 167.449219 354.257812 164.3125 353.820312 C 161.175781 353.382812 158.050781 352.855469 154.945312 352.242188 C 151.835938 351.625 148.746094 350.925781 145.679688 350.136719 C 142.609375 349.347656 139.566406 348.472656 136.546875 347.511719 C 133.527344 346.550781 130.539062 345.503906 127.578125 344.371094 C 124.621094 343.242188 121.695312 342.027344 118.804688 340.734375 C 115.914062 339.4375 113.0625 338.058594 110.246094 336.601562 C 107.433594 335.144531 104.664062 333.609375 101.9375 331.996094 C 99.210938 330.378906 96.535156 328.691406 93.902344 326.925781 C 91.273438 325.160156 88.695312 323.320312 86.167969 321.410156 C 83.640625 319.496094 81.171875 317.515625 78.757812 315.464844 C 76.34375 313.410156 73.988281 311.292969 71.695312 309.109375 C 69.398438 306.921875 67.167969 304.675781 65.003906 302.363281 C 62.835938 300.054688 60.734375 297.683594 58.703125 295.253906 C 56.667969 292.824219 54.707031 290.335938 52.8125 287.796875 C 50.921875 285.253906 49.101562 282.664062 47.359375 280.019531 C 45.613281 277.375 43.941406 274.683594 42.347656 271.945312 C 40.757812 269.207031 39.242188 266.425781 37.804688 263.601562 C 36.371094 260.777344 35.015625 257.914062 33.742188 255.011719 C 32.46875 252.113281 31.277344 249.175781 30.167969 246.207031 C 29.0625 243.242188 28.039062 240.242188 27.101562 237.21875 C 26.164062 234.191406 25.3125 231.140625 24.546875 228.066406 C 23.78125 224.992188 23.101562 221.898438 22.511719 218.785156 C 21.921875 215.671875 21.421875 212.546875 21.007812 209.40625 C 20.59375 206.261719 20.269531 203.113281 20.035156 199.953125 C 19.800781 196.792969 19.65625 193.628906 19.597656 190.460938 C 19.542969 187.292969 19.578125 184.128906 19.699219 180.960938 C 19.824219 177.796875 20.035156 174.636719 20.339844 171.484375 C 20.640625 168.328125 21.03125 165.1875 21.511719 162.054688 C 21.992188 158.921875 22.558594 155.808594 23.214844 152.707031 C 23.875 149.609375 24.617188 146.53125 25.449219 143.472656 C 26.277344 140.414062 27.195312 137.382812 28.195312 134.378906 C 29.199219 131.371094 30.285156 128.398438 31.457031 125.453125 C 32.625 122.507812 33.878906 119.601562 35.214844 116.726562 C 36.550781 113.855469 37.964844 111.019531 39.460938 108.226562 C 40.957031 105.433594 42.53125 102.6875 44.179688 99.984375 C 45.832031 97.277344 47.558594 94.625 49.359375 92.019531 C 51.160156 89.410156 53.035156 86.859375 54.980469 84.359375 C 56.925781 81.859375 58.941406 79.414062 61.027344 77.027344 C 63.109375 74.640625 65.261719 72.316406 67.476562 70.050781 C 69.691406 67.789062 71.96875 65.589844 74.3125 63.453125 C 75.125 62.710938 76.003906 62.054688 76.949219 61.484375 C 77.890625 60.914062 78.882812 60.441406 79.917969 60.066406 C 80.957031 59.691406 82.019531 59.421875 83.109375 59.253906 C 84.199219 59.089844 85.296875 59.03125 86.398438 59.082031 C 87.5 59.132812 88.585938 59.289062 89.65625 59.554688 C 90.726562 59.820312 91.761719 60.183594 92.757812 60.652344 C 93.757812 61.121094 94.699219 61.683594 95.589844 62.335938 C 96.476562 62.988281 97.292969 63.722656 98.035156 64.539062 C 98.777344 65.351562 99.433594 66.230469 100.003906 67.175781 C 100.574219 68.121094 101.046875 69.109375 101.421875 70.148438 C 101.796875 71.183594 102.066406 72.246094 102.234375 73.335938 C 102.398438 74.429688 102.457031 75.523438 102.40625 76.625 C 102.355469 77.726562 102.195312 78.8125 101.933594 79.882812 C 101.667969 80.953125 101.300781 81.988281 100.835938 82.984375 C 100.367188 83.984375 99.804688 84.925781 99.152344 85.816406 C 98.496094 86.703125 97.761719 87.519531 96.949219 88.261719 C 95.078125 89.96875 93.253906 91.730469 91.480469 93.542969 C 89.707031 95.355469 87.988281 97.214844 86.320312 99.121094 C 84.652344 101.03125 83.042969 102.984375 81.484375 104.988281 C 79.929688 106.988281 78.429688 109.027344 76.988281 111.113281 C 75.546875 113.199219 74.164062 115.324219 72.84375 117.488281 C 71.523438 119.648438 70.265625 121.847656 69.070312 124.082031 C 67.871094 126.316406 66.738281 128.582031 65.671875 130.882812 C 64.605469 133.179688 63.601562 135.507812 62.664062 137.863281 C 61.726562 140.21875 60.859375 142.597656 60.058594 145.003906 C 59.253906 147.40625 58.523438 149.832031 57.859375 152.277344 C 57.191406 154.722656 56.597656 157.1875 56.074219 159.667969 C 55.546875 162.144531 55.09375 164.636719 54.710938 167.144531 C 54.324219 169.648438 54.011719 172.164062 53.769531 174.6875 C 53.527344 177.210938 53.359375 179.738281 53.261719 182.269531 C 53.160156 184.800781 53.132812 187.335938 53.179688 189.871094 C 53.222656 192.402344 53.339844 194.933594 53.527344 197.460938 C 53.714844 199.992188 53.976562 202.511719 54.304688 205.023438 C 54.636719 207.535156 55.039062 210.039062 55.511719 212.527344 C 55.984375 215.019531 56.523438 217.492188 57.136719 219.953125 C 57.75 222.414062 58.429688 224.851562 59.179688 227.273438 C 59.929688 229.695312 60.75 232.09375 61.636719 234.46875 C 62.523438 236.839844 63.472656 239.1875 64.492188 241.511719 C 65.511719 243.832031 66.597656 246.121094 67.746094 248.378906 C 68.894531 250.640625 70.105469 252.863281 71.378906 255.054688 C 72.652344 257.246094 73.988281 259.398438 75.386719 261.515625 C 76.78125 263.628906 78.238281 265.703125 79.75 267.738281 C 81.265625 269.769531 82.835938 271.757812 84.460938 273.703125 C 86.089844 275.644531 87.769531 277.542969 89.5 279.390625 C 91.234375 281.242188 93.019531 283.039062 94.855469 284.785156 C 96.691406 286.535156 98.574219 288.230469 100.507812 289.871094 C 102.4375 291.511719 104.414062 293.097656 106.433594 294.625 C 108.457031 296.15625 110.519531 297.628906 112.625 299.039062 C 114.726562 300.453125 116.871094 301.804688 119.050781 303.097656 C 121.230469 304.386719 123.449219 305.617188 125.699219 306.78125 C 127.949219 307.949219 130.230469 309.050781 132.542969 310.085938 C 134.855469 311.125 137.195312 312.09375 139.5625 313 C 141.933594 313.902344 144.324219 314.738281 146.738281 315.507812 C 149.152344 316.277344 151.589844 316.976562 154.042969 317.609375 C 156.496094 318.238281 158.96875 318.800781 161.453125 319.292969 C 163.941406 319.785156 166.441406 320.203125 168.949219 320.554688 C 171.460938 320.90625 173.980469 321.183594 176.503906 321.390625 C 179.03125 321.597656 181.5625 321.734375 184.09375 321.796875 C 186.628906 321.863281 189.160156 321.855469 191.695312 321.777344 C 194.230469 321.695312 196.757812 321.546875 199.28125 321.324219 C 201.808594 321.101562 204.324219 320.808594 206.832031 320.445312 C 209.339844 320.078125 211.835938 319.644531 214.320312 319.136719 C 216.804688 318.632812 219.269531 318.054688 221.722656 317.410156 C 224.171875 316.765625 226.601562 316.050781 229.015625 315.265625 C 231.425781 314.484375 233.8125 313.632812 236.171875 312.714844 C 238.535156 311.796875 240.871094 310.8125 243.175781 309.761719 C 245.484375 308.710938 247.757812 307.597656 250.003906 306.417969 C 252.246094 305.238281 254.453125 303.996094 256.628906 302.691406 C 258.800781 301.386719 260.9375 300.023438 263.03125 298.597656 C 265.128906 297.171875 267.183594 295.6875 269.195312 294.148438 C 271.207031 292.605469 273.171875 291.007812 275.09375 289.355469 C 277.015625 287.703125 278.890625 286 280.714844 284.238281 C 282.539062 282.480469 284.3125 280.671875 286.035156 278.8125 C 287.757812 276.953125 289.429688 275.046875 291.042969 273.09375 C 292.660156 271.140625 294.214844 269.144531 295.71875 267.101562 C 297.21875 265.058594 298.664062 262.976562 300.046875 260.855469 C 301.429688 258.730469 302.753906 256.570312 304.015625 254.371094 C 305.277344 252.171875 306.476562 249.941406 307.609375 247.675781 C 308.746094 245.410156 309.816406 243.113281 310.820312 240.785156 C 311.828125 238.460938 312.765625 236.105469 313.636719 233.726562 C 314.511719 231.347656 315.316406 228.945312 316.050781 226.519531 C 316.785156 224.09375 317.453125 221.648438 318.050781 219.1875 C 318.648438 216.722656 319.175781 214.246094 319.632812 211.75 C 320.09375 209.257812 320.480469 206.753906 320.792969 204.238281 C 321.109375 201.726562 321.355469 199.203125 321.527344 196.675781 C 321.699219 194.144531 321.800781 191.613281 321.832031 189.078125 C 321.863281 186.546875 321.820312 184.011719 321.707031 181.480469 C 321.59375 178.949219 321.40625 176.421875 321.152344 173.898438 C 320.894531 171.378906 320.566406 168.867188 320.167969 166.363281 C 319.769531 163.859375 319.300781 161.371094 318.761719 158.894531 C 318.222656 156.417969 317.613281 153.957031 316.933594 151.515625 C 316.253906 149.074219 315.507812 146.652344 314.691406 144.253906 C 313.875 141.855469 312.992188 139.480469 312.042969 137.128906 C 311.089844 134.78125 310.074219 132.457031 308.992188 130.167969 C 307.910156 127.875 306.765625 125.613281 305.554688 123.386719 C 304.347656 121.160156 303.074219 118.96875 301.742188 116.8125 C 300.40625 114.65625 299.015625 112.542969 297.5625 110.464844 C 296.105469 108.390625 294.597656 106.355469 293.027344 104.363281 C 291.460938 102.375 289.835938 100.429688 288.15625 98.527344 C 286.480469 96.628906 284.746094 94.78125 282.964844 92.980469 C 281.179688 91.179688 279.347656 89.429688 277.464844 87.730469 C 275.582031 86.035156 273.65625 84.390625 271.679688 82.804688 C 269.703125 81.214844 267.6875 79.683594 265.625 78.210938 C 263.5625 76.734375 261.460938 75.320312 259.316406 73.964844 C 257.175781 72.609375 254.996094 71.316406 252.78125 70.085938 C 250.566406 68.855469 248.320312 67.6875 246.035156 66.582031 C 243.753906 65.476562 241.445312 64.4375 239.105469 63.464844 C 236.765625 62.492188 234.398438 61.585938 232.007812 60.746094 C 229.617188 59.90625 227.203125 59.132812 224.769531 58.429688 C 222.332031 57.726562 219.878906 57.09375 217.410156 56.53125 C 214.9375 55.964844 212.453125 55.472656 209.953125 55.046875 C 207.453125 54.625 204.945312 54.273438 202.425781 53.988281 C 201.332031 53.867188 200.257812 53.640625 199.207031 53.304688 C 198.15625 52.972656 197.148438 52.539062 196.183594 52.003906 C 195.21875 51.472656 194.3125 50.851562 193.46875 50.140625 C 192.625 49.429688 191.859375 48.644531 191.171875 47.78125 C 190.484375 46.921875 189.886719 46 189.378906 45.023438 C 188.871094 44.042969 188.464844 43.023438 188.160156 41.964844 C 187.855469 40.90625 187.652344 39.824219 187.5625 38.726562 C 187.46875 37.628906 187.480469 36.53125 187.605469 35.4375 C 187.726562 34.339844 187.953125 33.265625 188.289062 32.214844 C 188.621094 31.164062 189.054688 30.15625 189.589844 29.191406 C 190.121094 28.226562 190.742188 27.320312 191.453125 26.476562 C 192.164062 25.636719 192.949219 24.871094 193.8125 24.179688 C 194.671875 23.492188 195.59375 22.894531 196.574219 22.386719 C 197.550781 21.882812 198.570312 21.476562 199.628906 21.167969 C 200.6875 20.863281 201.769531 20.664062 202.867188 20.570312 C 203.964844 20.476562 205.0625 20.488281 206.160156 20.613281 Z M 206.160156 20.613281 " clip-rule="nonzero"/></clipPath></defs><g fill="#ffffff" fill-opacity="1"><g transform="translate(125.929976, 207.817106)"><g><path d="M 12.015625 -11.78125 C 12.410156 -9.789062 13.257812 -8.28125 14.5625 -7.25 C 15.875 -6.21875 17.644531 -5.703125 19.875 -5.703125 C 22.6875 -5.703125 24.742188 -6.8125 26.046875 -9.03125 C 27.359375 -11.257812 28.015625 -15.050781 28.015625 -20.40625 C 27.066406 -19.050781 25.726562 -18.007812 24 -17.28125 C 22.28125 -16.550781 20.40625 -16.1875 18.375 -16.1875 C 15.800781 -16.1875 13.460938 -16.707031 11.359375 -17.75 C 9.253906 -18.800781 7.597656 -20.367188 6.390625 -22.453125 C 5.179688 -24.535156 4.578125 -27.066406 4.578125 -30.046875 C 4.578125 -34.398438 5.851562 -37.875 8.40625 -40.46875 C 10.96875 -43.070312 14.488281 -44.375 18.96875 -44.375 C 24.363281 -44.375 28.203125 -42.578125 30.484375 -38.984375 C 32.765625 -35.398438 33.90625 -29.898438 33.90625 -22.484375 C 33.90625 -17.367188 33.476562 -13.1875 32.625 -9.9375 C 31.769531 -6.6875 30.289062 -4.226562 28.1875 -2.5625 C 26.09375 -0.894531 23.179688 -0.0625 19.453125 -0.0625 C 15.210938 -0.0625 11.941406 -1.171875 9.640625 -3.390625 C 7.335938 -5.609375 6.046875 -8.40625 5.765625 -11.78125 Z M 19.578125 -21.890625 C 21.953125 -21.890625 23.820312 -22.632812 25.1875 -24.125 C 26.5625 -25.613281 27.25 -27.585938 27.25 -30.046875 C 27.25 -32.773438 26.523438 -34.898438 25.078125 -36.421875 C 23.628906 -37.953125 21.65625 -38.71875 19.15625 -38.71875 C 16.65625 -38.71875 14.679688 -37.9375 13.234375 -36.375 C 11.785156 -34.8125 11.0625 -32.757812 11.0625 -30.21875 C 11.0625 -27.800781 11.765625 -25.804688 13.171875 -24.234375 C 14.578125 -22.671875 16.710938 -21.890625 19.578125 -21.890625 Z M 19.578125 -21.890625 "/></g></g></g><g fill="#ffffff" fill-opacity="1"><g transform="translate(163.704337, 207.817106)"><g><path d="M 3.5625 -22.25 C 3.5625 -29.101562 4.722656 -34.460938 7.046875 -38.328125 C 9.367188 -42.203125 13.363281 -44.140625 19.03125 -44.140625 C 24.707031 -44.140625 28.703125 -42.203125 31.015625 -38.328125 C 33.335938 -34.460938 34.5 -29.101562 34.5 -22.25 C 34.5 -15.3125 33.335938 -9.890625 31.015625 -5.984375 C 28.703125 -2.078125 24.707031 -0.125 19.03125 -0.125 C 13.363281 -0.125 9.367188 -2.078125 7.046875 -5.984375 C 4.722656 -9.890625 3.5625 -15.3125 3.5625 -22.25 Z M 27.84375 -22.25 C 27.84375 -25.457031 27.632812 -28.171875 27.21875 -30.390625 C 26.800781 -32.617188 25.957031 -34.4375 24.6875 -35.84375 C 23.414062 -37.25 21.53125 -37.953125 19.03125 -37.953125 C 16.53125 -37.953125 14.644531 -37.25 13.375 -35.84375 C 12.113281 -34.4375 11.273438 -32.617188 10.859375 -30.390625 C 10.441406 -28.171875 10.234375 -25.457031 10.234375 -22.25 C 10.234375 -18.914062 10.429688 -16.117188 10.828125 -13.859375 C 11.222656 -11.597656 12.0625 -9.773438 13.34375 -8.390625 C 14.632812 -7.003906 16.53125 -6.3125 19.03125 -6.3125 C 21.53125 -6.3125 23.425781 -7.003906 24.71875 -8.390625 C 26.007812 -9.773438 26.851562 -11.597656 27.25 -13.859375 C 27.644531 -16.117188 27.84375 -18.914062 27.84375 -22.25 Z M 27.84375 -22.25 "/></g></g></g><g fill="#ffffff" fill-opacity="1"><g transform="translate(201.835619, 207.817106)"><g><path d="M 2.5 -32.890625 C 2.5 -35.785156 3.335938 -38.054688 5.015625 -39.703125 C 6.703125 -41.347656 8.878906 -42.171875 11.546875 -42.171875 C 14.203125 -42.171875 16.367188 -41.347656 18.046875 -39.703125 C 19.734375 -38.054688 20.578125 -35.785156 20.578125 -32.890625 C 20.578125 -29.992188 19.734375 -27.710938 18.046875 -26.046875 C 16.367188 -24.390625 14.203125 -23.5625 11.546875 -23.5625 C 8.878906 -23.5625 6.703125 -24.390625 5.015625 -26.046875 C 3.335938 -27.710938 2.5 -29.992188 2.5 -32.890625 Z M 38.78125 -41.40625 L 15.046875 0 L 8.390625 0 L 32.125 -41.40625 Z M 11.546875 -38.0625 C 9.046875 -38.0625 7.796875 -36.335938 7.796875 -32.890625 C 7.796875 -29.398438 9.046875 -27.65625 11.546875 -27.65625 C 12.734375 -27.65625 13.648438 -28.082031 14.296875 -28.9375 C 14.953125 -29.789062 15.28125 -31.109375 15.28125 -32.890625 C 15.28125 -36.335938 14.035156 -38.0625 11.546875 -38.0625 Z M 26.703125 -8.5625 C 26.703125 -11.457031 27.546875 -13.726562 29.234375 -15.375 C 30.921875 -17.019531 33.09375 -17.84375 35.75 -17.84375 C 38.363281 -17.84375 40.515625 -17.019531 42.203125 -15.375 C 43.890625 -13.726562 44.734375 -11.457031 44.734375 -8.5625 C 44.734375 -5.664062 43.890625 -3.382812 42.203125 -1.71875 C 40.515625 -0.0625 38.363281 0.765625 35.75 0.765625 C 33.09375 0.765625 30.921875 -0.0625 29.234375 -1.71875 C 27.546875 -3.382812 26.703125 -5.664062 26.703125 -8.5625 Z M 35.6875 -13.734375 C 33.1875 -13.734375 31.9375 -12.007812 31.9375 -8.5625 C 31.9375 -5.113281 33.1875 -3.390625 35.6875 -3.390625 C 38.1875 -3.390625 39.4375 -5.113281 39.4375 -8.5625 C 39.4375 -12.007812 38.1875 -13.734375 35.6875 -13.734375 Z M 35.6875 -13.734375 "/></g></g></g><g clip-path="url(#1ccd692097)"><g clip-path="url(#18f28bbeaa)"><path fill="#000000" d="M 19.574219 19.574219 L 355.425781 19.574219 L 355.425781 355.425781 L 19.574219 355.425781 Z M 19.574219 19.574219 " fill-opacity="1" fill-rule="nonzero"/></g></g><g clip-path="url(#c7b64bdd86)"><g clip-path="url(#08929987ac)"><path fill="#8c52ff" d="M 19.574219 19.574219 L 355.425781 19.574219 L 355.425781 355.425781 L 19.574219 355.425781 Z M 19.574219 19.574219 " fill-opacity="1" fill-rule="nonzero"/></g></g></svg>