<svg xmlns="http://www.w3.org/2000/svg" xmlns:xlink="http://www.w3.org/1999/xlink" width="500" zoomAndPan="magnify" viewBox="0 0 375 374.999991" height="500" preserveAspectRatio="xMidYMid meet" version="1.0"><defs><g/><clipPath id="537103240c"><path d="M 19.574219 19.574219 L 355.425781 19.574219 L 355.425781 355.425781 L 19.574219 355.425781 Z M 19.574219 19.574219 " clip-rule="nonzero"/></clipPath><clipPath id="92423a00da"><path d="M 187.5 19.574219 C 193 19.574219 198.488281 19.84375 203.960938 20.382812 C 209.433594 20.921875 214.867188 21.726562 220.261719 22.800781 C 225.65625 23.871094 230.984375 25.207031 236.246094 26.804688 C 241.507812 28.398438 246.683594 30.25 251.761719 32.355469 C 256.84375 34.460938 261.808594 36.808594 266.660156 39.402344 C 271.511719 41.992188 276.222656 44.816406 280.796875 47.875 C 285.367188 50.929688 289.78125 54.203125 294.03125 57.691406 C 298.28125 61.179688 302.351562 64.867188 306.242188 68.757812 C 310.132812 72.648438 313.820312 76.714844 317.308594 80.96875 C 320.796875 85.21875 324.070312 89.632812 327.125 94.203125 C 330.183594 98.777344 333.003906 103.488281 335.597656 108.339844 C 338.191406 113.191406 340.539062 118.15625 342.644531 123.238281 C 344.75 128.316406 346.601562 133.492188 348.195312 138.753906 C 349.792969 144.015625 351.128906 149.34375 352.199219 154.738281 C 353.273438 160.132812 354.078125 165.566406 354.617188 171.039062 C 355.15625 176.511719 355.425781 182 355.425781 187.5 C 355.425781 193 355.15625 198.488281 354.617188 203.960938 C 354.078125 209.433594 353.273438 214.867188 352.199219 220.261719 C 351.128906 225.65625 349.792969 230.984375 348.195312 236.246094 C 346.601562 241.507812 344.75 246.683594 342.644531 251.761719 C 340.539062 256.84375 338.191406 261.808594 335.597656 266.660156 C 333.003906 271.511719 330.183594 276.222656 327.125 280.796875 C 324.070312 285.367188 320.796875 289.78125 317.308594 294.03125 C 313.820312 298.28125 310.132812 302.351562 306.242188 306.242188 C 302.351562 310.132812 298.28125 313.820312 294.03125 317.308594 C 289.78125 320.796875 285.367188 324.070312 280.796875 327.125 C 276.222656 330.183594 271.511719 333.003906 266.660156 335.597656 C 261.808594 338.191406 256.84375 340.539062 251.761719 342.644531 C 246.683594 344.75 241.507812 346.601562 236.246094 348.195312 C 230.984375 349.792969 225.65625 351.128906 220.261719 352.199219 C 214.867188 353.273438 209.433594 354.078125 203.960938 354.617188 C 198.488281 355.15625 193 355.425781 187.5 355.425781 C 182 355.425781 176.511719 355.15625 171.039062 354.617188 C 165.566406 354.078125 160.132812 353.273438 154.738281 352.199219 C 149.34375 351.128906 144.015625 349.792969 138.753906 348.195312 C 133.492188 346.601562 128.316406 344.75 123.238281 342.644531 C 118.15625 340.539062 113.191406 338.191406 108.339844 335.597656 C 103.488281 333.003906 98.777344 330.183594 94.203125 327.125 C 89.632812 324.070312 85.21875 320.796875 80.96875 317.308594 C 76.714844 313.820312 72.648438 310.132812 68.757812 306.242188 C 64.867188 302.351562 61.179688 298.28125 57.691406 294.03125 C 54.203125 289.78125 50.929688 285.367188 47.875 280.796875 C 44.816406 276.222656 41.992188 271.511719 39.402344 266.660156 C 36.808594 261.808594 34.460938 256.84375 32.355469 251.761719 C 30.25 246.683594 28.398438 241.507812 26.804688 236.246094 C 25.207031 230.984375 23.871094 225.65625 22.800781 220.261719 C 21.726562 214.867188 20.921875 209.433594 20.382812 203.960938 C 19.84375 198.488281 19.574219 193 19.574219 187.5 C 19.574219 182 19.84375 176.511719 20.382812 171.039062 C 20.921875 165.566406 21.726562 160.132812 22.800781 154.738281 C 23.871094 149.34375 25.207031 144.015625 26.804688 138.753906 C 28.398438 133.492188 30.25 128.316406 32.355469 123.238281 C 34.460938 118.15625 36.808594 113.191406 39.402344 108.339844 C 41.992188 103.488281 44.816406 98.777344 47.875 94.203125 C 50.929688 89.632812 54.203125 85.21875 57.691406 80.96875 C 61.179688 76.714844 64.867188 72.648438 68.757812 68.757812 C 72.648438 64.867188 76.714844 61.179688 80.96875 57.691406 C 85.21875 54.203125 89.632812 50.929688 94.203125 47.875 C 98.777344 44.816406 103.488281 41.992188 108.339844 39.402344 C 113.191406 36.808594 118.15625 34.460938 123.238281 32.355469 C 128.316406 30.25 133.492188 28.398438 138.753906 26.804688 C 144.015625 25.207031 149.34375 23.871094 154.738281 22.800781 C 160.132812 21.726562 165.566406 20.921875 171.039062 20.382812 C 176.511719 19.84375 182 19.574219 187.5 19.574219 L 187.5 53.160156 C 183.101562 53.160156 178.710938 53.375 174.332031 53.804688 C 169.953125 54.238281 165.605469 54.882812 161.292969 55.738281 C 156.976562 56.597656 152.714844 57.664062 148.503906 58.941406 C 144.292969 60.21875 140.15625 61.699219 136.089844 63.382812 C 132.023438 65.066406 128.050781 66.945312 124.171875 69.019531 C 120.292969 71.09375 116.523438 73.355469 112.863281 75.800781 C 109.207031 78.242188 105.675781 80.859375 102.273438 83.652344 C 98.875 86.445312 95.617188 89.394531 92.507812 92.507812 C 89.394531 95.617188 86.445312 98.875 83.652344 102.273438 C 80.859375 105.675781 78.242188 109.207031 75.800781 112.863281 C 73.355469 116.523438 71.09375 120.292969 69.019531 124.171875 C 66.945312 128.050781 65.066406 132.023438 63.382812 136.089844 C 61.699219 140.15625 60.21875 144.292969 58.941406 148.503906 C 57.664062 152.714844 56.597656 156.976562 55.738281 161.292969 C 54.882812 165.605469 54.238281 169.953125 53.804688 174.332031 C 53.375 178.710938 53.160156 183.101562 53.160156 187.5 C 53.160156 191.898438 53.375 196.289062 53.804688 200.667969 C 54.238281 205.046875 54.882812 209.394531 55.738281 213.707031 C 56.597656 218.023438 57.664062 222.285156 58.941406 226.496094 C 60.21875 230.707031 61.699219 234.84375 63.382812 238.910156 C 65.066406 242.976562 66.945312 246.949219 69.019531 250.828125 C 71.09375 254.707031 73.355469 258.476562 75.800781 262.136719 C 78.242188 265.792969 80.859375 269.324219 83.652344 272.726562 C 86.445312 276.125 89.394531 279.382812 92.507812 282.492188 C 95.617188 285.605469 98.875 288.554688 102.273438 291.347656 C 105.675781 294.140625 109.207031 296.757812 112.863281 299.199219 C 116.523438 301.644531 120.292969 303.90625 124.171875 305.980469 C 128.050781 308.054688 132.023438 309.933594 136.089844 311.617188 C 140.15625 313.300781 144.292969 314.78125 148.503906 316.058594 C 152.714844 317.335938 156.976562 318.402344 161.292969 319.261719 C 165.605469 320.117188 169.953125 320.761719 174.332031 321.195312 C 178.710938 321.625 183.101562 321.839844 187.5 321.839844 C 191.898438 321.839844 196.289062 321.625 200.667969 321.195312 C 205.046875 320.761719 209.394531 320.117188 213.707031 319.261719 C 218.023438 318.402344 222.285156 317.335938 226.496094 316.058594 C 230.707031 314.78125 234.84375 313.300781 238.910156 311.617188 C 242.976562 309.933594 246.949219 308.054688 250.828125 305.980469 C 254.707031 303.90625 258.476562 301.644531 262.136719 299.199219 C 265.792969 296.757812 269.324219 294.140625 272.726562 291.347656 C 276.125 288.554688 279.382812 285.605469 282.492188 282.492188 C 285.605469 279.382812 288.554688 276.125 291.347656 272.726562 C 294.140625 269.324219 296.757812 265.792969 299.199219 262.136719 C 301.644531 258.476562 303.90625 254.707031 305.980469 250.828125 C 308.054688 246.949219 309.933594 242.976562 311.617188 238.910156 C 313.300781 234.84375 314.78125 230.707031 316.058594 226.496094 C 317.335938 222.285156 318.402344 218.023438 319.261719 213.707031 C 320.117188 209.394531 320.761719 205.046875 321.195312 200.667969 C 321.625 196.289062 321.839844 191.898438 321.839844 187.5 C 321.839844 183.101562 321.625 178.710938 321.195312 174.332031 C 320.761719 169.953125 320.117188 165.605469 319.261719 161.292969 C 318.402344 156.976562 317.335938 152.714844 316.058594 148.503906 C 314.78125 144.292969 313.300781 140.15625 311.617188 136.089844 C 309.933594 132.023438 308.054688 128.050781 305.980469 124.171875 C 303.90625 120.292969 301.644531 116.523438 299.199219 112.863281 C 296.757812 109.207031 294.140625 105.675781 291.347656 102.273438 C 288.554688 98.875 285.605469 95.617188 282.492188 92.507812 C 279.382812 89.394531 276.125 86.445312 272.726562 83.652344 C 269.324219 80.859375 265.792969 78.242188 262.136719 75.800781 C 258.476562 73.355469 254.707031 71.09375 250.828125 69.019531 C 246.949219 66.945312 242.976562 65.066406 238.910156 63.382812 C 234.84375 61.699219 230.707031 60.21875 226.496094 58.941406 C 222.285156 57.664062 218.023438 56.597656 213.707031 55.738281 C 209.394531 54.882812 205.046875 54.238281 200.667969 53.804688 C 196.289062 53.375 191.898438 53.160156 187.5 53.160156 Z M 187.5 19.574219 " clip-rule="nonzero"/></clipPath><clipPath id="5587c58c6b"><path d="M 19 20 L 356 20 L 356 356 L 19 356 Z M 19 20 " clip-rule="nonzero"/></clipPath><clipPath id="918f65145d"><path d="M 206.160156 20.613281 C 211.730469 21.234375 217.257812 22.136719 222.738281 23.3125 C 228.222656 24.488281 233.628906 25.9375 238.96875 27.65625 C 244.304688 29.371094 249.542969 31.355469 254.679688 33.597656 C 259.820312 35.839844 264.832031 38.332031 269.722656 41.078125 C 274.609375 43.824219 279.351562 46.808594 283.941406 50.027344 C 288.53125 53.246094 292.949219 56.6875 297.191406 60.351562 C 301.4375 64.011719 305.488281 67.878906 309.347656 71.945312 C 313.207031 76.015625 316.851562 80.265625 320.285156 84.699219 C 323.714844 89.132812 326.917969 93.726562 329.890625 98.480469 C 332.863281 103.234375 335.589844 108.125 338.070312 113.152344 C 340.554688 118.179688 342.78125 123.320312 344.746094 128.570312 C 346.714844 133.820312 348.414062 139.152344 349.847656 144.574219 C 351.28125 149.996094 352.441406 155.472656 353.324219 161.011719 C 354.210938 166.546875 354.816406 172.113281 355.140625 177.710938 C 355.46875 183.308594 355.515625 188.90625 355.28125 194.507812 C 355.046875 200.109375 354.535156 205.6875 353.742188 211.238281 C 352.949219 216.789062 351.878906 222.285156 350.539062 227.730469 C 349.195312 233.171875 347.582031 238.535156 345.703125 243.816406 C 343.820312 249.097656 341.683594 254.273438 339.285156 259.34375 C 336.886719 264.410156 334.238281 269.34375 331.347656 274.148438 C 328.453125 278.949219 325.328125 283.597656 321.96875 288.085938 C 318.609375 292.574219 315.035156 296.886719 311.246094 301.019531 C 307.457031 305.148438 303.46875 309.082031 299.285156 312.8125 C 295.101562 316.546875 290.742188 320.058594 286.203125 323.355469 C 281.667969 326.652344 276.980469 329.710938 272.136719 332.539062 C 267.292969 335.363281 262.324219 337.941406 257.222656 340.269531 C 252.121094 342.597656 246.917969 344.664062 241.609375 346.46875 C 236.300781 348.277344 230.917969 349.8125 225.457031 351.082031 C 219.996094 352.347656 214.484375 353.339844 208.921875 354.054688 C 203.359375 354.769531 197.777344 355.207031 192.171875 355.363281 C 186.570312 355.519531 180.972656 355.394531 175.378906 354.988281 C 169.785156 354.585938 164.230469 353.902344 158.703125 352.941406 C 153.179688 351.976562 147.71875 350.742188 142.320312 349.234375 C 136.917969 347.726562 131.609375 345.953125 126.386719 343.910156 C 121.164062 341.871094 116.054688 339.574219 111.0625 337.023438 C 106.070312 334.46875 101.21875 331.675781 96.507812 328.636719 C 91.792969 325.597656 87.246094 322.332031 82.859375 318.839844 C 78.476562 315.347656 74.277344 311.640625 70.261719 307.726562 C 66.246094 303.8125 62.4375 299.707031 58.835938 295.414062 C 55.234375 291.117188 51.855469 286.652344 48.699219 282.015625 C 45.542969 277.382812 42.625 272.601562 39.949219 267.675781 C 37.273438 262.75 34.847656 257.703125 32.675781 252.53125 C 30.503906 247.363281 28.597656 242.097656 26.953125 236.738281 C 25.308594 231.378906 23.9375 225.949219 22.835938 220.449219 C 21.738281 214.953125 20.914062 209.414062 20.371094 203.835938 C 19.824219 198.253906 19.558594 192.660156 19.574219 187.054688 C 19.589844 181.445312 19.882812 175.855469 20.457031 170.277344 C 21.035156 164.699219 21.886719 159.167969 23.015625 153.675781 C 23.238281 152.59375 23.5625 151.546875 23.988281 150.53125 C 24.417969 149.511719 24.941406 148.546875 25.558594 147.636719 C 26.179688 146.722656 26.878906 145.878906 27.664062 145.101562 C 28.449219 144.328125 29.300781 143.636719 30.222656 143.03125 C 31.144531 142.421875 32.113281 141.910156 33.136719 141.496094 C 34.160156 141.082031 35.210938 140.769531 36.292969 140.5625 C 37.375 140.351562 38.46875 140.25 39.574219 140.257812 C 40.675781 140.265625 41.765625 140.378906 42.847656 140.601562 C 43.925781 140.824219 44.976562 141.148438 45.992188 141.578125 C 47.007812 142.007812 47.972656 142.53125 48.886719 143.148438 C 49.796875 143.769531 50.640625 144.46875 51.417969 145.253906 C 52.191406 146.039062 52.882812 146.894531 53.488281 147.816406 C 54.09375 148.734375 54.605469 149.707031 55.023438 150.730469 C 55.4375 151.75 55.75 152.804688 55.957031 153.886719 C 56.164062 154.96875 56.265625 156.0625 56.257812 157.164062 C 56.25 158.269531 56.132812 159.359375 55.910156 160.441406 C 55.007812 164.832031 54.328125 169.261719 53.867188 173.722656 C 53.40625 178.183594 53.171875 182.65625 53.160156 187.144531 C 53.148438 191.628906 53.359375 196.101562 53.796875 200.566406 C 54.230469 205.03125 54.890625 209.460938 55.769531 213.859375 C 56.648438 218.257812 57.746094 222.601562 59.0625 226.890625 C 60.378906 231.179688 61.902344 235.390625 63.640625 239.527344 C 65.378906 243.660156 67.316406 247.699219 69.460938 251.640625 C 71.601562 255.582031 73.933594 259.40625 76.457031 263.113281 C 78.984375 266.820312 81.6875 270.394531 84.570312 273.828125 C 87.453125 277.265625 90.5 280.550781 93.710938 283.683594 C 96.921875 286.8125 100.28125 289.777344 103.789062 292.570312 C 107.296875 295.367188 110.9375 297.980469 114.707031 300.410156 C 118.476562 302.839844 122.355469 305.078125 126.351562 307.117188 C 130.34375 309.160156 134.429688 310.996094 138.609375 312.628906 C 142.785156 314.261719 147.035156 315.679688 151.355469 316.886719 C 155.675781 318.09375 160.042969 319.082031 164.464844 319.851562 C 168.882812 320.621094 173.328125 321.167969 177.804688 321.492188 C 182.277344 321.816406 186.753906 321.914062 191.238281 321.789062 C 195.722656 321.664062 200.1875 321.316406 204.636719 320.742188 C 209.085938 320.171875 213.496094 319.378906 217.863281 318.363281 C 222.234375 317.351562 226.542969 316.121094 230.789062 314.675781 C 235.035156 313.230469 239.199219 311.578125 243.277344 309.714844 C 247.359375 307.851562 251.335938 305.792969 255.210938 303.53125 C 259.082031 301.269531 262.835938 298.820312 266.464844 296.183594 C 270.09375 293.546875 273.582031 290.738281 276.929688 287.75 C 280.273438 284.765625 283.464844 281.621094 286.496094 278.316406 C 289.527344 275.007812 292.386719 271.5625 295.074219 267.96875 C 297.761719 264.378906 300.261719 260.660156 302.578125 256.816406 C 304.890625 252.976562 307.007812 249.027344 308.925781 244.972656 C 310.847656 240.917969 312.558594 236.78125 314.0625 232.554688 C 315.566406 228.328125 316.855469 224.039062 317.929688 219.683594 C 319.003906 215.328125 319.859375 210.929688 320.492188 206.492188 C 321.125 202.050781 321.539062 197.589844 321.726562 193.109375 C 321.910156 188.625 321.875 184.144531 321.613281 179.667969 C 321.351562 175.191406 320.867188 170.738281 320.160156 166.308594 C 319.453125 161.878906 318.523438 157.496094 317.378906 153.160156 C 316.230469 148.824219 314.871094 144.554688 313.296875 140.355469 C 311.722656 136.15625 309.945312 132.042969 307.957031 128.023438 C 305.972656 124 303.789062 120.085938 301.414062 116.285156 C 299.035156 112.480469 296.472656 108.804688 293.726562 105.257812 C 290.980469 101.710938 288.066406 98.3125 284.976562 95.058594 C 281.890625 91.800781 278.648438 88.710938 275.253906 85.78125 C 271.859375 82.851562 268.324219 80.097656 264.652344 77.523438 C 260.980469 74.945312 257.1875 72.558594 253.277344 70.363281 C 249.367188 68.167969 245.355469 66.171875 241.246094 64.378906 C 237.132812 62.582031 232.945312 61 228.675781 59.625 C 224.40625 58.25 220.078125 57.089844 215.691406 56.148438 C 211.304688 55.207031 206.882812 54.488281 202.425781 53.988281 C 201.332031 53.867188 200.257812 53.640625 199.207031 53.304688 C 198.15625 52.972656 197.148438 52.539062 196.183594 52.003906 C 195.21875 51.472656 194.3125 50.851562 193.46875 50.140625 C 192.625 49.429688 191.859375 48.644531 191.171875 47.78125 C 190.484375 46.921875 189.886719 46 189.378906 45.023438 C 188.871094 44.042969 188.464844 43.023438 188.160156 41.964844 C 187.855469 40.90625 187.652344 39.824219 187.5625 38.726562 C 187.46875 37.628906 187.480469 36.53125 187.605469 35.4375 C 187.726562 34.339844 187.953125 33.265625 188.289062 32.214844 C 188.621094 31.164062 189.054688 30.15625 189.589844 29.191406 C 190.121094 28.226562 190.742188 27.320312 191.453125 26.476562 C 192.164062 25.636719 192.949219 24.871094 193.8125 24.179688 C 194.671875 23.492188 195.59375 22.894531 196.574219 22.386719 C 197.550781 21.882812 198.570312 21.476562 199.628906 21.167969 C 200.6875 20.863281 201.769531 20.664062 202.867188 20.570312 C 203.964844 20.476562 205.0625 20.488281 206.160156 20.613281 Z M 206.160156 20.613281 " clip-rule="nonzero"/></clipPath></defs><g fill="#ffffff" fill-opacity="1"><g transform="translate(125.840886, 207.817106)"><g><path d="M 10.890625 -22.65625 C 6.765625 -24.71875 4.703125 -27.972656 4.703125 -32.421875 C 4.703125 -34.554688 5.234375 -36.515625 6.296875 -38.296875 C 7.367188 -40.085938 8.972656 -41.507812 11.109375 -42.5625 C 13.253906 -43.613281 15.875 -44.140625 18.96875 -44.140625 C 22.03125 -44.140625 24.640625 -43.613281 26.796875 -42.5625 C 28.960938 -41.507812 30.578125 -40.085938 31.640625 -38.296875 C 32.710938 -36.515625 33.25 -34.554688 33.25 -32.421875 C 33.25 -30.203125 32.679688 -28.25 31.546875 -26.5625 C 30.421875 -24.875 28.925781 -23.570312 27.0625 -22.65625 C 29.320312 -21.832031 31.101562 -20.476562 32.40625 -18.59375 C 33.71875 -16.707031 34.375 -14.492188 34.375 -11.953125 C 34.375 -9.378906 33.71875 -7.097656 32.40625 -5.109375 C 31.101562 -3.128906 29.28125 -1.601562 26.9375 -0.53125 C 24.601562 0.539062 21.945312 1.078125 18.96875 1.078125 C 16 1.078125 13.351562 0.539062 11.03125 -0.53125 C 8.707031 -1.601562 6.890625 -3.128906 5.578125 -5.109375 C 4.273438 -7.097656 3.625 -9.378906 3.625 -11.953125 C 3.625 -14.535156 4.273438 -16.757812 5.578125 -18.625 C 6.890625 -20.488281 8.660156 -21.832031 10.890625 -22.65625 Z M 26.765625 -31.59375 C 26.765625 -33.8125 26.070312 -35.515625 24.6875 -36.703125 C 23.300781 -37.890625 21.394531 -38.484375 18.96875 -38.484375 C 16.59375 -38.484375 14.710938 -37.890625 13.328125 -36.703125 C 11.941406 -35.515625 11.25 -33.789062 11.25 -31.53125 C 11.25 -29.539062 11.96875 -27.921875 13.40625 -26.671875 C 14.851562 -25.429688 16.707031 -24.8125 18.96875 -24.8125 C 21.226562 -24.8125 23.09375 -25.441406 24.5625 -26.703125 C 26.03125 -27.972656 26.765625 -29.601562 26.765625 -31.59375 Z M 18.96875 -19.6875 C 16.351562 -19.6875 14.222656 -19.039062 12.578125 -17.75 C 10.929688 -16.46875 10.109375 -14.613281 10.109375 -12.1875 C 10.109375 -9.925781 10.898438 -8.09375 12.484375 -6.6875 C 14.078125 -5.28125 16.238281 -4.578125 18.96875 -4.578125 C 21.664062 -4.578125 23.796875 -5.289062 25.359375 -6.71875 C 26.929688 -8.144531 27.71875 -9.96875 27.71875 -12.1875 C 27.71875 -14.570312 26.914062 -16.414062 25.3125 -17.71875 C 23.707031 -19.03125 21.59375 -19.6875 18.96875 -19.6875 Z M 18.96875 -19.6875 "/></g></g></g><g fill="#ffffff" fill-opacity="1"><g transform="translate(163.793708, 207.817106)"><g><path d="M 3.5625 -22.25 C 3.5625 -29.101562 4.722656 -34.460938 7.046875 -38.328125 C 9.367188 -42.203125 13.363281 -44.140625 19.03125 -44.140625 C 24.707031 -44.140625 28.703125 -42.203125 31.015625 -38.328125 C 33.335938 -34.460938 34.5 -29.101562 34.5 -22.25 C 34.5 -15.3125 33.335938 -9.890625 31.015625 -5.984375 C 28.703125 -2.078125 24.707031 -0.125 19.03125 -0.125 C 13.363281 -0.125 9.367188 -2.078125 7.046875 -5.984375 C 4.722656 -9.890625 3.5625 -15.3125 3.5625 -22.25 Z M 27.84375 -22.25 C 27.84375 -25.457031 27.632812 -28.171875 27.21875 -30.390625 C 26.800781 -32.617188 25.957031 -34.4375 24.6875 -35.84375 C 23.414062 -37.25 21.53125 -37.953125 19.03125 -37.953125 C 16.53125 -37.953125 14.644531 -37.25 13.375 -35.84375 C 12.113281 -34.4375 11.273438 -32.617188 10.859375 -30.390625 C 10.441406 -28.171875 10.234375 -25.457031 10.234375 -22.25 C 10.234375 -18.914062 10.429688 -16.117188 10.828125 -13.859375 C 11.222656 -11.597656 12.0625 -9.773438 13.34375 -8.390625 C 14.632812 -7.003906 16.53125 -6.3125 19.03125 -6.3125 C 21.53125 -6.3125 23.425781 -7.003906 24.71875 -8.390625 C 26.007812 -9.773438 26.851562 -11.597656 27.25 -13.859375 C 27.644531 -16.117188 27.84375 -18.914062 27.84375 -22.25 Z M 27.84375 -22.25 "/></g></g></g><g fill="#ffffff" fill-opacity="1"><g transform="translate(201.92499, 207.817106)"><g><path d="M 2.5 -32.890625 C 2.5 -35.785156 3.335938 -38.054688 5.015625 -39.703125 C 6.703125 -41.347656 8.878906 -42.171875 11.546875 -42.171875 C 14.203125 -42.171875 16.367188 -41.347656 18.046875 -39.703125 C 19.734375 -38.054688 20.578125 -35.785156 20.578125 -32.890625 C 20.578125 -29.992188 19.734375 -27.710938 18.046875 -26.046875 C 16.367188 -24.390625 14.203125 -23.5625 11.546875 -23.5625 C 8.878906 -23.5625 6.703125 -24.390625 5.015625 -26.046875 C 3.335938 -27.710938 2.5 -29.992188 2.5 -32.890625 Z M 38.78125 -41.40625 L 15.046875 0 L 8.390625 0 L 32.125 -41.40625 Z M 11.546875 -38.0625 C 9.046875 -38.0625 7.796875 -36.335938 7.796875 -32.890625 C 7.796875 -29.398438 9.046875 -27.65625 11.546875 -27.65625 C 12.734375 -27.65625 13.648438 -28.082031 14.296875 -28.9375 C 14.953125 -29.789062 15.28125 -31.109375 15.28125 -32.890625 C 15.28125 -36.335938 14.035156 -38.0625 11.546875 -38.0625 Z M 26.703125 -8.5625 C 26.703125 -11.457031 27.546875 -13.726562 29.234375 -15.375 C 30.921875 -17.019531 33.09375 -17.84375 35.75 -17.84375 C 38.363281 -17.84375 40.515625 -17.019531 42.203125 -15.375 C 43.890625 -13.726562 44.734375 -11.457031 44.734375 -8.5625 C 44.734375 -5.664062 43.890625 -3.382812 42.203125 -1.71875 C 40.515625 -0.0625 38.363281 0.765625 35.75 0.765625 C 33.09375 0.765625 30.921875 -0.0625 29.234375 -1.71875 C 27.546875 -3.382812 26.703125 -5.664062 26.703125 -8.5625 Z M 35.6875 -13.734375 C 33.1875 -13.734375 31.9375 -12.007812 31.9375 -8.5625 C 31.9375 -5.113281 33.1875 -3.390625 35.6875 -3.390625 C 38.1875 -3.390625 39.4375 -5.113281 39.4375 -8.5625 C 39.4375 -12.007812 38.1875 -13.734375 35.6875 -13.734375 Z M 35.6875 -13.734375 "/></g></g></g><g clip-path="url(#537103240c)"><g clip-path="url(#92423a00da)"><path fill="#000000" d="M 19.574219 19.574219 L 355.425781 19.574219 L 355.425781 355.425781 L 19.574219 355.425781 Z M 19.574219 19.574219 " fill-opacity="1" fill-rule="nonzero"/></g></g><g clip-path="url(#5587c58c6b)"><g clip-path="url(#918f65145d)"><path fill="#8c52ff" d="M 19.574219 19.574219 L 355.425781 19.574219 L 355.425781 355.425781 L 19.574219 355.425781 Z M 19.574219 19.574219 " fill-opacity="1" fill-rule="nonzero"/></g></g></svg>