<svg xmlns="http://www.w3.org/2000/svg" xmlns:xlink="http://www.w3.org/1999/xlink" width="500" zoomAndPan="magnify" viewBox="0 0 375 374.999991" height="500" preserveAspectRatio="xMidYMid meet" version="1.0"><defs><g/><clipPath id="8d0602a262"><path d="M 19.574219 19.574219 L 355.425781 19.574219 L 355.425781 355.425781 L 19.574219 355.425781 Z M 19.574219 19.574219 " clip-rule="nonzero"/></clipPath><clipPath id="279a7c9d41"><path d="M 187.5 19.574219 C 193 19.574219 198.488281 19.84375 203.960938 20.382812 C 209.433594 20.921875 214.867188 21.726562 220.261719 22.800781 C 225.65625 23.871094 230.984375 25.207031 236.246094 26.804688 C 241.507812 28.398438 246.683594 30.25 251.761719 32.355469 C 256.84375 34.460938 261.808594 36.808594 266.660156 39.402344 C 271.511719 41.992188 276.222656 44.816406 280.796875 47.875 C 285.367188 50.929688 289.78125 54.203125 294.03125 57.691406 C 298.28125 61.179688 302.351562 64.867188 306.242188 68.757812 C 310.132812 72.648438 313.820312 76.714844 317.308594 80.96875 C 320.796875 85.21875 324.070312 89.632812 327.125 94.203125 C 330.183594 98.777344 333.003906 103.488281 335.597656 108.339844 C 338.191406 113.191406 340.539062 118.15625 342.644531 123.238281 C 344.75 128.316406 346.601562 133.492188 348.195312 138.753906 C 349.792969 144.015625 351.128906 149.34375 352.199219 154.738281 C 353.273438 160.132812 354.078125 165.566406 354.617188 171.039062 C 355.15625 176.511719 355.425781 182 355.425781 187.5 C 355.425781 193 355.15625 198.488281 354.617188 203.960938 C 354.078125 209.433594 353.273438 214.867188 352.199219 220.261719 C 351.128906 225.65625 349.792969 230.984375 348.195312 236.246094 C 346.601562 241.507812 344.75 246.683594 342.644531 251.761719 C 340.539062 256.84375 338.191406 261.808594 335.597656 266.660156 C 333.003906 271.511719 330.183594 276.222656 327.125 280.796875 C 324.070312 285.367188 320.796875 289.78125 317.308594 294.03125 C 313.820312 298.28125 310.132812 302.351562 306.242188 306.242188 C 302.351562 310.132812 298.28125 313.820312 294.03125 317.308594 C 289.78125 320.796875 285.367188 324.070312 280.796875 327.125 C 276.222656 330.183594 271.511719 333.003906 266.660156 335.597656 C 261.808594 338.191406 256.84375 340.539062 251.761719 342.644531 C 246.683594 344.75 241.507812 346.601562 236.246094 348.195312 C 230.984375 349.792969 225.65625 351.128906 220.261719 352.199219 C 214.867188 353.273438 209.433594 354.078125 203.960938 354.617188 C 198.488281 355.15625 193 355.425781 187.5 355.425781 C 182 355.425781 176.511719 355.15625 171.039062 354.617188 C 165.566406 354.078125 160.132812 353.273438 154.738281 352.199219 C 149.34375 351.128906 144.015625 349.792969 138.753906 348.195312 C 133.492188 346.601562 128.316406 344.75 123.238281 342.644531 C 118.15625 340.539062 113.191406 338.191406 108.339844 335.597656 C 103.488281 333.003906 98.777344 330.183594 94.203125 327.125 C 89.632812 324.070312 85.21875 320.796875 80.96875 317.308594 C 76.714844 313.820312 72.648438 310.132812 68.757812 306.242188 C 64.867188 302.351562 61.179688 298.28125 57.691406 294.03125 C 54.203125 289.78125 50.929688 285.367188 47.875 280.796875 C 44.816406 276.222656 41.992188 271.511719 39.402344 266.660156 C 36.808594 261.808594 34.460938 256.84375 32.355469 251.761719 C 30.25 246.683594 28.398438 241.507812 26.804688 236.246094 C 25.207031 230.984375 23.871094 225.65625 22.800781 220.261719 C 21.726562 214.867188 20.921875 209.433594 20.382812 203.960938 C 19.84375 198.488281 19.574219 193 19.574219 187.5 C 19.574219 182 19.84375 176.511719 20.382812 171.039062 C 20.921875 165.566406 21.726562 160.132812 22.800781 154.738281 C 23.871094 149.34375 25.207031 144.015625 26.804688 138.753906 C 28.398438 133.492188 30.25 128.316406 32.355469 123.238281 C 34.460938 118.15625 36.808594 113.191406 39.402344 108.339844 C 41.992188 103.488281 44.816406 98.777344 47.875 94.203125 C 50.929688 89.632812 54.203125 85.21875 57.691406 80.96875 C 61.179688 76.714844 64.867188 72.648438 68.757812 68.757812 C 72.648438 64.867188 76.714844 61.179688 80.96875 57.691406 C 85.21875 54.203125 89.632812 50.929688 94.203125 47.875 C 98.777344 44.816406 103.488281 41.992188 108.339844 39.402344 C 113.191406 36.808594 118.15625 34.460938 123.238281 32.355469 C 128.316406 30.25 133.492188 28.398438 138.753906 26.804688 C 144.015625 25.207031 149.34375 23.871094 154.738281 22.800781 C 160.132812 21.726562 165.566406 20.921875 171.039062 20.382812 C 176.511719 19.84375 182 19.574219 187.5 19.574219 L 187.5 53.160156 C 183.101562 53.160156 178.710938 53.375 174.332031 53.804688 C 169.953125 54.238281 165.605469 54.882812 161.292969 55.738281 C 156.976562 56.597656 152.714844 57.664062 148.503906 58.941406 C 144.292969 60.21875 140.15625 61.699219 136.089844 63.382812 C 132.023438 65.066406 128.050781 66.945312 124.171875 69.019531 C 120.292969 71.09375 116.523438 73.355469 112.863281 75.800781 C 109.207031 78.242188 105.675781 80.859375 102.273438 83.652344 C 98.875 86.445312 95.617188 89.394531 92.507812 92.507812 C 89.394531 95.617188 86.445312 98.875 83.652344 102.273438 C 80.859375 105.675781 78.242188 109.207031 75.800781 112.863281 C 73.355469 116.523438 71.09375 120.292969 69.019531 124.171875 C 66.945312 128.050781 65.066406 132.023438 63.382812 136.089844 C 61.699219 140.15625 60.21875 144.292969 58.941406 148.503906 C 57.664062 152.714844 56.597656 156.976562 55.738281 161.292969 C 54.882812 165.605469 54.238281 169.953125 53.804688 174.332031 C 53.375 178.710938 53.160156 183.101562 53.160156 187.5 C 53.160156 191.898438 53.375 196.289062 53.804688 200.667969 C 54.238281 205.046875 54.882812 209.394531 55.738281 213.707031 C 56.597656 218.023438 57.664062 222.285156 58.941406 226.496094 C 60.21875 230.707031 61.699219 234.84375 63.382812 238.910156 C 65.066406 242.976562 66.945312 246.949219 69.019531 250.828125 C 71.09375 254.707031 73.355469 258.476562 75.800781 262.136719 C 78.242188 265.792969 80.859375 269.324219 83.652344 272.726562 C 86.445312 276.125 89.394531 279.382812 92.507812 282.492188 C 95.617188 285.605469 98.875 288.554688 102.273438 291.347656 C 105.675781 294.140625 109.207031 296.757812 112.863281 299.199219 C 116.523438 301.644531 120.292969 303.90625 124.171875 305.980469 C 128.050781 308.054688 132.023438 309.933594 136.089844 311.617188 C 140.15625 313.300781 144.292969 314.78125 148.503906 316.058594 C 152.714844 317.335938 156.976562 318.402344 161.292969 319.261719 C 165.605469 320.117188 169.953125 320.761719 174.332031 321.195312 C 178.710938 321.625 183.101562 321.839844 187.5 321.839844 C 191.898438 321.839844 196.289062 321.625 200.667969 321.195312 C 205.046875 320.761719 209.394531 320.117188 213.707031 319.261719 C 218.023438 318.402344 222.285156 317.335938 226.496094 316.058594 C 230.707031 314.78125 234.84375 313.300781 238.910156 311.617188 C 242.976562 309.933594 246.949219 308.054688 250.828125 305.980469 C 254.707031 303.90625 258.476562 301.644531 262.136719 299.199219 C 265.792969 296.757812 269.324219 294.140625 272.726562 291.347656 C 276.125 288.554688 279.382812 285.605469 282.492188 282.492188 C 285.605469 279.382812 288.554688 276.125 291.347656 272.726562 C 294.140625 269.324219 296.757812 265.792969 299.199219 262.136719 C 301.644531 258.476562 303.90625 254.707031 305.980469 250.828125 C 308.054688 246.949219 309.933594 242.976562 311.617188 238.910156 C 313.300781 234.84375 314.78125 230.707031 316.058594 226.496094 C 317.335938 222.285156 318.402344 218.023438 319.261719 213.707031 C 320.117188 209.394531 320.761719 205.046875 321.195312 200.667969 C 321.625 196.289062 321.839844 191.898438 321.839844 187.5 C 321.839844 183.101562 321.625 178.710938 321.195312 174.332031 C 320.761719 169.953125 320.117188 165.605469 319.261719 161.292969 C 318.402344 156.976562 317.335938 152.714844 316.058594 148.503906 C 314.78125 144.292969 313.300781 140.15625 311.617188 136.089844 C 309.933594 132.023438 308.054688 128.050781 305.980469 124.171875 C 303.90625 120.292969 301.644531 116.523438 299.199219 112.863281 C 296.757812 109.207031 294.140625 105.675781 291.347656 102.273438 C 288.554688 98.875 285.605469 95.617188 282.492188 92.507812 C 279.382812 89.394531 276.125 86.445312 272.726562 83.652344 C 269.324219 80.859375 265.792969 78.242188 262.136719 75.800781 C 258.476562 73.355469 254.707031 71.09375 250.828125 69.019531 C 246.949219 66.945312 242.976562 65.066406 238.910156 63.382812 C 234.84375 61.699219 230.707031 60.21875 226.496094 58.941406 C 222.285156 57.664062 218.023438 56.597656 213.707031 55.738281 C 209.394531 54.882812 205.046875 54.238281 200.667969 53.804688 C 196.289062 53.375 191.898438 53.160156 187.5 53.160156 Z M 187.5 19.574219 " clip-rule="nonzero"/></clipPath><clipPath id="2610f9a89a"><path d="M 20 20 L 356 20 L 356 356 L 20 356 Z M 20 20 " clip-rule="nonzero"/></clipPath><clipPath id="4aae56612a"><path d="M 206.160156 20.613281 C 211.367188 21.195312 216.535156 22.019531 221.664062 23.085938 C 226.792969 24.152344 231.863281 25.453125 236.871094 26.996094 C 241.878906 28.535156 246.804688 30.304688 251.644531 32.308594 C 256.488281 34.308594 261.226562 36.53125 265.859375 38.976562 C 270.496094 41.421875 275.003906 44.078125 279.390625 46.945312 C 283.777344 49.8125 288.019531 52.878906 292.117188 56.140625 C 296.214844 59.40625 300.152344 62.855469 303.925781 66.488281 C 307.703125 70.121094 311.300781 73.921875 314.722656 77.890625 C 318.140625 81.859375 321.367188 85.980469 324.402344 90.25 C 327.4375 94.523438 330.265625 98.925781 332.886719 103.464844 C 335.507812 108 337.914062 112.648438 340.101562 117.410156 C 342.289062 122.171875 344.246094 127.023438 345.980469 131.96875 C 347.710938 136.914062 349.210938 141.929688 350.472656 147.015625 C 351.738281 152.097656 352.757812 157.230469 353.542969 162.414062 C 354.324219 167.59375 354.863281 172.800781 355.160156 178.03125 C 355.457031 183.261719 355.503906 188.496094 355.3125 193.730469 C 355.117188 198.96875 354.679688 204.183594 353.996094 209.378906 C 353.3125 214.570312 352.390625 219.722656 351.226562 224.832031 C 350.058594 229.941406 348.660156 234.984375 347.023438 239.960938 C 345.386719 244.9375 343.519531 249.828125 341.425781 254.628906 C 339.332031 259.433594 337.015625 264.128906 334.480469 268.714844 C 331.949219 273.300781 329.207031 277.757812 326.253906 282.085938 C 323.304688 286.417969 320.15625 290.597656 316.8125 294.632812 C 313.472656 298.667969 309.949219 302.539062 306.242188 306.242188 C 302.539062 309.945312 298.667969 313.472656 294.632812 316.8125 C 290.597656 320.15625 286.417969 323.304688 282.085938 326.253906 C 277.757812 329.207031 273.300781 331.949219 268.714844 334.484375 C 264.128906 337.015625 259.433594 339.332031 254.628906 341.425781 C 249.828125 343.519531 244.9375 345.386719 239.960938 347.023438 C 234.984375 348.660156 229.941406 350.058594 224.832031 351.226562 C 219.722656 352.390625 214.570312 353.3125 209.378906 353.996094 C 204.183594 354.679688 198.96875 355.117188 193.730469 355.3125 C 188.496094 355.503906 183.261719 355.457031 178.03125 355.160156 C 172.800781 354.863281 167.59375 354.324219 162.414062 353.542969 C 157.230469 352.757812 152.097656 351.738281 147.015625 350.472656 C 141.929688 349.210938 136.914062 347.710938 131.96875 345.980469 C 127.023438 344.246094 122.171875 342.289062 117.410156 340.101562 C 112.648438 337.914062 108 335.507812 103.464844 332.886719 C 98.925781 330.265625 94.523438 327.4375 90.25 324.402344 C 85.980469 321.367188 81.859375 318.140625 77.890625 314.722656 C 73.921875 311.300781 70.121094 307.703125 66.488281 303.925781 C 62.855469 300.152344 59.40625 296.214844 56.140625 292.117188 C 52.878906 288.019531 49.8125 283.777344 46.945312 279.390625 C 44.078125 275.003906 41.421875 270.496094 38.976562 265.859375 C 36.53125 261.226562 34.308594 256.488281 32.308594 251.644531 C 30.304688 246.804688 28.535156 241.878906 26.996094 236.871094 C 25.453125 231.863281 24.152344 226.792969 23.085938 221.664062 C 22.019531 216.535156 21.195312 211.367188 20.613281 206.160156 C 20.488281 205.0625 20.476562 203.964844 20.570312 202.867188 C 20.664062 201.769531 20.863281 200.6875 21.167969 199.628906 C 21.476562 198.570312 21.882812 197.550781 22.386719 196.574219 C 22.894531 195.59375 23.492188 194.671875 24.179688 193.8125 C 24.871094 192.949219 25.636719 192.164062 26.476562 191.453125 C 27.320312 190.742188 28.226562 190.121094 29.191406 189.589844 C 30.15625 189.054688 31.164062 188.621094 32.214844 188.289062 C 33.265625 187.953125 34.339844 187.726562 35.4375 187.605469 C 36.53125 187.480469 37.628906 187.46875 38.726562 187.5625 C 39.824219 187.652344 40.90625 187.855469 41.964844 188.160156 C 43.023438 188.464844 44.042969 188.871094 45.023438 189.378906 C 46 189.886719 46.921875 190.484375 47.78125 191.171875 C 48.644531 191.859375 49.429688 192.625 50.140625 193.46875 C 50.851562 194.3125 51.472656 195.21875 52.003906 196.183594 C 52.539062 197.148438 52.972656 198.15625 53.304688 199.207031 C 53.640625 200.257812 53.867188 201.332031 53.988281 202.425781 C 54.457031 206.59375 55.113281 210.726562 55.96875 214.832031 C 56.820312 218.933594 57.863281 222.992188 59.09375 226.996094 C 60.328125 231.003906 61.746094 234.941406 63.347656 238.816406 C 64.945312 242.691406 66.726562 246.480469 68.679688 250.1875 C 70.636719 253.894531 72.761719 257.503906 75.054688 261.011719 C 77.351562 264.519531 79.800781 267.914062 82.414062 271.191406 C 85.023438 274.472656 87.785156 277.621094 90.691406 280.640625 C 93.597656 283.664062 96.636719 286.542969 99.8125 289.277344 C 102.988281 292.011719 106.285156 294.59375 109.703125 297.023438 C 113.117188 299.449219 116.640625 301.710938 120.269531 303.808594 C 123.898438 305.90625 127.617188 307.832031 131.429688 309.582031 C 135.238281 311.328125 139.121094 312.898438 143.074219 314.285156 C 147.03125 315.667969 151.042969 316.867188 155.109375 317.878906 C 159.179688 318.890625 163.285156 319.707031 167.429688 320.335938 C 171.574219 320.960938 175.738281 321.390625 179.925781 321.628906 C 184.109375 321.863281 188.296875 321.90625 192.484375 321.75 C 196.671875 321.59375 200.847656 321.242188 205 320.695312 C 209.15625 320.152344 213.277344 319.410156 217.367188 318.480469 C 221.453125 317.546875 225.488281 316.425781 229.46875 315.117188 C 233.449219 313.808594 237.363281 312.316406 241.203125 310.640625 C 245.046875 308.964844 248.800781 307.113281 252.472656 305.085938 C 256.140625 303.058594 259.707031 300.863281 263.167969 298.503906 C 266.632812 296.144531 269.976562 293.625 273.207031 290.949219 C 276.433594 288.277344 279.53125 285.457031 282.492188 282.492188 C 285.457031 279.53125 288.277344 276.433594 290.949219 273.207031 C 293.625 269.976562 296.144531 266.632812 298.503906 263.167969 C 300.863281 259.707031 303.058594 256.140625 305.085938 252.472656 C 307.113281 248.800781 308.964844 245.046875 310.640625 241.203125 C 312.316406 237.363281 313.808594 233.449219 315.117188 229.46875 C 316.425781 225.488281 317.546875 221.453125 318.480469 217.367188 C 319.410156 213.277344 320.152344 209.15625 320.695312 205 C 321.242188 200.847656 321.59375 196.671875 321.75 192.484375 C 321.90625 188.296875 321.863281 184.109375 321.628906 179.925781 C 321.390625 175.738281 320.960938 171.574219 320.335938 167.429688 C 319.707031 163.285156 318.890625 159.179688 317.878906 155.109375 C 316.867188 151.042969 315.667969 147.03125 314.285156 143.074219 C 312.898438 139.121094 311.328125 135.238281 309.582031 131.429688 C 307.832031 127.617188 305.90625 123.898438 303.808594 120.269531 C 301.710938 116.640625 299.449219 113.117188 297.023438 109.703125 C 294.59375 106.285156 292.011719 102.988281 289.277344 99.8125 C 286.542969 96.636719 283.664062 93.597656 280.640625 90.691406 C 277.621094 87.785156 274.472656 85.023438 271.191406 82.414062 C 267.914062 79.800781 264.519531 77.351562 261.011719 75.054688 C 257.503906 72.761719 253.894531 70.636719 250.1875 68.679688 C 246.480469 66.726562 242.691406 64.945312 238.816406 63.347656 C 234.941406 61.746094 231.003906 60.328125 226.996094 59.09375 C 222.992188 57.863281 218.933594 56.820312 214.832031 55.96875 C 210.726562 55.113281 206.59375 54.457031 202.425781 53.988281 C 201.332031 53.867188 200.257812 53.640625 199.207031 53.304688 C 198.15625 52.972656 197.148438 52.539062 196.183594 52.003906 C 195.21875 51.472656 194.3125 50.851562 193.46875 50.140625 C 192.625 49.429688 191.859375 48.644531 191.171875 47.78125 C 190.484375 46.921875 189.886719 46 189.378906 45.023438 C 188.871094 44.042969 188.464844 43.023438 188.160156 41.964844 C 187.855469 40.90625 187.652344 39.824219 187.5625 38.726562 C 187.46875 37.628906 187.480469 36.53125 187.605469 35.4375 C 187.726562 34.339844 187.953125 33.265625 188.289062 32.214844 C 188.621094 31.164062 189.054688 30.15625 189.589844 29.191406 C 190.121094 28.226562 190.742188 27.320312 191.453125 26.476562 C 192.164062 25.636719 192.949219 24.871094 193.8125 24.179688 C 194.671875 23.492188 195.59375 22.894531 196.574219 22.386719 C 197.550781 21.882812 198.570312 21.476562 199.628906 21.167969 C 200.6875 20.863281 201.769531 20.664062 202.867188 20.570312 C 203.964844 20.476562 205.0625 20.488281 206.160156 20.613281 Z M 206.160156 20.613281 " clip-rule="nonzero"/></clipPath></defs><g fill="#ffffff" fill-opacity="1"><g transform="translate(128.220171, 207.817106)"><g><path d="M 31.046875 -38.125 L 14.515625 0 L 7.671875 0 L 24.390625 -37.421875 L 2.375 -37.421875 L 2.375 -43.1875 L 31.046875 -43.1875 Z M 31.046875 -38.125 "/></g></g></g><g fill="#ffffff" fill-opacity="1"><g transform="translate(161.532994, 207.817106)"><g><path d="M 31.53125 -37.53125 L 11.59375 -37.53125 L 11.59375 -25.703125 C 12.425781 -26.804688 13.664062 -27.734375 15.3125 -28.484375 C 16.957031 -29.242188 18.710938 -29.625 20.578125 -29.625 C 23.910156 -29.625 26.617188 -28.910156 28.703125 -27.484375 C 30.785156 -26.054688 32.269531 -24.25 33.15625 -22.0625 C 34.050781 -19.882812 34.5 -17.585938 34.5 -15.171875 C 34.5 -12.234375 33.929688 -9.625 32.796875 -7.34375 C 31.671875 -5.0625 29.988281 -3.265625 27.75 -1.953125 C 25.507812 -0.648438 22.765625 0 19.515625 0 C 15.191406 0 11.71875 -1.066406 9.09375 -3.203125 C 6.476562 -5.347656 4.914062 -8.1875 4.40625 -11.71875 L 11 -11.71875 C 11.4375 -9.851562 12.410156 -8.375 13.921875 -7.28125 C 15.429688 -6.195312 17.316406 -5.65625 19.578125 -5.65625 C 22.390625 -5.65625 24.5 -6.503906 25.90625 -8.203125 C 27.3125 -9.910156 28.015625 -12.171875 28.015625 -14.984375 C 28.015625 -17.835938 27.300781 -20.03125 25.875 -21.5625 C 24.445312 -23.09375 22.347656 -23.859375 19.578125 -23.859375 C 17.628906 -23.859375 15.988281 -23.367188 14.65625 -22.390625 C 13.332031 -21.421875 12.375 -20.101562 11.78125 -18.4375 L 5.359375 -18.4375 L 5.359375 -43.484375 L 31.53125 -43.484375 Z M 31.53125 -37.53125 "/></g></g></g><g fill="#ffffff" fill-opacity="1"><g transform="translate(199.545307, 207.817106)"><g><path d="M 2.5 -32.890625 C 2.5 -35.785156 3.335938 -38.054688 5.015625 -39.703125 C 6.703125 -41.347656 8.878906 -42.171875 11.546875 -42.171875 C 14.203125 -42.171875 16.367188 -41.347656 18.046875 -39.703125 C 19.734375 -38.054688 20.578125 -35.785156 20.578125 -32.890625 C 20.578125 -29.992188 19.734375 -27.710938 18.046875 -26.046875 C 16.367188 -24.390625 14.203125 -23.5625 11.546875 -23.5625 C 8.878906 -23.5625 6.703125 -24.390625 5.015625 -26.046875 C 3.335938 -27.710938 2.5 -29.992188 2.5 -32.890625 Z M 38.78125 -41.40625 L 15.046875 0 L 8.390625 0 L 32.125 -41.40625 Z M 11.546875 -38.0625 C 9.046875 -38.0625 7.796875 -36.335938 7.796875 -32.890625 C 7.796875 -29.398438 9.046875 -27.65625 11.546875 -27.65625 C 12.734375 -27.65625 13.648438 -28.082031 14.296875 -28.9375 C 14.953125 -29.789062 15.28125 -31.109375 15.28125 -32.890625 C 15.28125 -36.335938 14.035156 -38.0625 11.546875 -38.0625 Z M 26.703125 -8.5625 C 26.703125 -11.457031 27.546875 -13.726562 29.234375 -15.375 C 30.921875 -17.019531 33.09375 -17.84375 35.75 -17.84375 C 38.363281 -17.84375 40.515625 -17.019531 42.203125 -15.375 C 43.890625 -13.726562 44.734375 -11.457031 44.734375 -8.5625 C 44.734375 -5.664062 43.890625 -3.382812 42.203125 -1.71875 C 40.515625 -0.0625 38.363281 0.765625 35.75 0.765625 C 33.09375 0.765625 30.921875 -0.0625 29.234375 -1.71875 C 27.546875 -3.382812 26.703125 -5.664062 26.703125 -8.5625 Z M 35.6875 -13.734375 C 33.1875 -13.734375 31.9375 -12.007812 31.9375 -8.5625 C 31.9375 -5.113281 33.1875 -3.390625 35.6875 -3.390625 C 38.1875 -3.390625 39.4375 -5.113281 39.4375 -8.5625 C 39.4375 -12.007812 38.1875 -13.734375 35.6875 -13.734375 Z M 35.6875 -13.734375 "/></g></g></g><g clip-path="url(#8d0602a262)"><g clip-path="url(#279a7c9d41)"><path fill="#000000" d="M 19.574219 19.574219 L 355.425781 19.574219 L 355.425781 355.425781 L 19.574219 355.425781 Z M 19.574219 19.574219 " fill-opacity="1" fill-rule="nonzero"/></g></g><g clip-path="url(#2610f9a89a)"><g clip-path="url(#4aae56612a)"><path fill="#8c52ff" d="M 19.574219 19.574219 L 355.425781 19.574219 L 355.425781 355.425781 L 19.574219 355.425781 Z M 19.574219 19.574219 " fill-opacity="1" fill-rule="nonzero"/></g></g></svg>