<svg xmlns="http://www.w3.org/2000/svg" xmlns:xlink="http://www.w3.org/1999/xlink" width="500" zoomAndPan="magnify" viewBox="0 0 375 374.999991" height="500" preserveAspectRatio="xMidYMid meet" version="1.0"><defs><g/><clipPath id="5ff3865cb9"><path d="M 19.574219 19.574219 L 355.425781 19.574219 L 355.425781 355.425781 L 19.574219 355.425781 Z M 19.574219 19.574219 " clip-rule="nonzero"/></clipPath><clipPath id="8258f72eb6"><path d="M 187.5 19.574219 C 193 19.574219 198.488281 19.84375 203.960938 20.382812 C 209.433594 20.921875 214.867188 21.726562 220.261719 22.800781 C 225.65625 23.871094 230.984375 25.207031 236.246094 26.804688 C 241.507812 28.398438 246.683594 30.25 251.761719 32.355469 C 256.84375 34.460938 261.808594 36.808594 266.660156 39.402344 C 271.511719 41.992188 276.222656 44.816406 280.796875 47.875 C 285.367188 50.929688 289.78125 54.203125 294.03125 57.691406 C 298.28125 61.179688 302.351562 64.867188 306.242188 68.757812 C 310.132812 72.648438 313.820312 76.714844 317.308594 80.96875 C 320.796875 85.21875 324.070312 89.632812 327.125 94.203125 C 330.183594 98.777344 333.003906 103.488281 335.597656 108.339844 C 338.191406 113.191406 340.539062 118.15625 342.644531 123.238281 C 344.75 128.316406 346.601562 133.492188 348.195312 138.753906 C 349.792969 144.015625 351.128906 149.34375 352.199219 154.738281 C 353.273438 160.132812 354.078125 165.566406 354.617188 171.039062 C 355.15625 176.511719 355.425781 182 355.425781 187.5 C 355.425781 193 355.15625 198.488281 354.617188 203.960938 C 354.078125 209.433594 353.273438 214.867188 352.199219 220.261719 C 351.128906 225.65625 349.792969 230.984375 348.195312 236.246094 C 346.601562 241.507812 344.75 246.683594 342.644531 251.761719 C 340.539062 256.84375 338.191406 261.808594 335.597656 266.660156 C 333.003906 271.511719 330.183594 276.222656 327.125 280.796875 C 324.070312 285.367188 320.796875 289.78125 317.308594 294.03125 C 313.820312 298.28125 310.132812 302.351562 306.242188 306.242188 C 302.351562 310.132812 298.28125 313.820312 294.03125 317.308594 C 289.78125 320.796875 285.367188 324.070312 280.796875 327.125 C 276.222656 330.183594 271.511719 333.003906 266.660156 335.597656 C 261.808594 338.191406 256.84375 340.539062 251.761719 342.644531 C 246.683594 344.75 241.507812 346.601562 236.246094 348.195312 C 230.984375 349.792969 225.65625 351.128906 220.261719 352.199219 C 214.867188 353.273438 209.433594 354.078125 203.960938 354.617188 C 198.488281 355.15625 193 355.425781 187.5 355.425781 C 182 355.425781 176.511719 355.15625 171.039062 354.617188 C 165.566406 354.078125 160.132812 353.273438 154.738281 352.199219 C 149.34375 351.128906 144.015625 349.792969 138.753906 348.195312 C 133.492188 346.601562 128.316406 344.75 123.238281 342.644531 C 118.15625 340.539062 113.191406 338.191406 108.339844 335.597656 C 103.488281 333.003906 98.777344 330.183594 94.203125 327.125 C 89.632812 324.070312 85.21875 320.796875 80.96875 317.308594 C 76.714844 313.820312 72.648438 310.132812 68.757812 306.242188 C 64.867188 302.351562 61.179688 298.28125 57.691406 294.03125 C 54.203125 289.78125 50.929688 285.367188 47.875 280.796875 C 44.816406 276.222656 41.992188 271.511719 39.402344 266.660156 C 36.808594 261.808594 34.460938 256.84375 32.355469 251.761719 C 30.25 246.683594 28.398438 241.507812 26.804688 236.246094 C 25.207031 230.984375 23.871094 225.65625 22.800781 220.261719 C 21.726562 214.867188 20.921875 209.433594 20.382812 203.960938 C 19.84375 198.488281 19.574219 193 19.574219 187.5 C 19.574219 182 19.84375 176.511719 20.382812 171.039062 C 20.921875 165.566406 21.726562 160.132812 22.800781 154.738281 C 23.871094 149.34375 25.207031 144.015625 26.804688 138.753906 C 28.398438 133.492188 30.25 128.316406 32.355469 123.238281 C 34.460938 118.15625 36.808594 113.191406 39.402344 108.339844 C 41.992188 103.488281 44.816406 98.777344 47.875 94.203125 C 50.929688 89.632812 54.203125 85.21875 57.691406 80.96875 C 61.179688 76.714844 64.867188 72.648438 68.757812 68.757812 C 72.648438 64.867188 76.714844 61.179688 80.96875 57.691406 C 85.21875 54.203125 89.632812 50.929688 94.203125 47.875 C 98.777344 44.816406 103.488281 41.992188 108.339844 39.402344 C 113.191406 36.808594 118.15625 34.460938 123.238281 32.355469 C 128.316406 30.25 133.492188 28.398438 138.753906 26.804688 C 144.015625 25.207031 149.34375 23.871094 154.738281 22.800781 C 160.132812 21.726562 165.566406 20.921875 171.039062 20.382812 C 176.511719 19.84375 182 19.574219 187.5 19.574219 L 187.5 53.160156 C 183.101562 53.160156 178.710938 53.375 174.332031 53.804688 C 169.953125 54.238281 165.605469 54.882812 161.292969 55.738281 C 156.976562 56.597656 152.714844 57.664062 148.503906 58.941406 C 144.292969 60.21875 140.15625 61.699219 136.089844 63.382812 C 132.023438 65.066406 128.050781 66.945312 124.171875 69.019531 C 120.292969 71.09375 116.523438 73.355469 112.863281 75.800781 C 109.207031 78.242188 105.675781 80.859375 102.273438 83.652344 C 98.875 86.445312 95.617188 89.394531 92.507812 92.507812 C 89.394531 95.617188 86.445312 98.875 83.652344 102.273438 C 80.859375 105.675781 78.242188 109.207031 75.800781 112.863281 C 73.355469 116.523438 71.09375 120.292969 69.019531 124.171875 C 66.945312 128.050781 65.066406 132.023438 63.382812 136.089844 C 61.699219 140.15625 60.21875 144.292969 58.941406 148.503906 C 57.664062 152.714844 56.597656 156.976562 55.738281 161.292969 C 54.882812 165.605469 54.238281 169.953125 53.804688 174.332031 C 53.375 178.710938 53.160156 183.101562 53.160156 187.5 C 53.160156 191.898438 53.375 196.289062 53.804688 200.667969 C 54.238281 205.046875 54.882812 209.394531 55.738281 213.707031 C 56.597656 218.023438 57.664062 222.285156 58.941406 226.496094 C 60.21875 230.707031 61.699219 234.84375 63.382812 238.910156 C 65.066406 242.976562 66.945312 246.949219 69.019531 250.828125 C 71.09375 254.707031 73.355469 258.476562 75.800781 262.136719 C 78.242188 265.792969 80.859375 269.324219 83.652344 272.726562 C 86.445312 276.125 89.394531 279.382812 92.507812 282.492188 C 95.617188 285.605469 98.875 288.554688 102.273438 291.347656 C 105.675781 294.140625 109.207031 296.757812 112.863281 299.199219 C 116.523438 301.644531 120.292969 303.90625 124.171875 305.980469 C 128.050781 308.054688 132.023438 309.933594 136.089844 311.617188 C 140.15625 313.300781 144.292969 314.78125 148.503906 316.058594 C 152.714844 317.335938 156.976562 318.402344 161.292969 319.261719 C 165.605469 320.117188 169.953125 320.761719 174.332031 321.195312 C 178.710938 321.625 183.101562 321.839844 187.5 321.839844 C 191.898438 321.839844 196.289062 321.625 200.667969 321.195312 C 205.046875 320.761719 209.394531 320.117188 213.707031 319.261719 C 218.023438 318.402344 222.285156 317.335938 226.496094 316.058594 C 230.707031 314.78125 234.84375 313.300781 238.910156 311.617188 C 242.976562 309.933594 246.949219 308.054688 250.828125 305.980469 C 254.707031 303.90625 258.476562 301.644531 262.136719 299.199219 C 265.792969 296.757812 269.324219 294.140625 272.726562 291.347656 C 276.125 288.554688 279.382812 285.605469 282.492188 282.492188 C 285.605469 279.382812 288.554688 276.125 291.347656 272.726562 C 294.140625 269.324219 296.757812 265.792969 299.199219 262.136719 C 301.644531 258.476562 303.90625 254.707031 305.980469 250.828125 C 308.054688 246.949219 309.933594 242.976562 311.617188 238.910156 C 313.300781 234.84375 314.78125 230.707031 316.058594 226.496094 C 317.335938 222.285156 318.402344 218.023438 319.261719 213.707031 C 320.117188 209.394531 320.761719 205.046875 321.195312 200.667969 C 321.625 196.289062 321.839844 191.898438 321.839844 187.5 C 321.839844 183.101562 321.625 178.710938 321.195312 174.332031 C 320.761719 169.953125 320.117188 165.605469 319.261719 161.292969 C 318.402344 156.976562 317.335938 152.714844 316.058594 148.503906 C 314.78125 144.292969 313.300781 140.15625 311.617188 136.089844 C 309.933594 132.023438 308.054688 128.050781 305.980469 124.171875 C 303.90625 120.292969 301.644531 116.523438 299.199219 112.863281 C 296.757812 109.207031 294.140625 105.675781 291.347656 102.273438 C 288.554688 98.875 285.605469 95.617188 282.492188 92.507812 C 279.382812 89.394531 276.125 86.445312 272.726562 83.652344 C 269.324219 80.859375 265.792969 78.242188 262.136719 75.800781 C 258.476562 73.355469 254.707031 71.09375 250.828125 69.019531 C 246.949219 66.945312 242.976562 65.066406 238.910156 63.382812 C 234.84375 61.699219 230.707031 60.21875 226.496094 58.941406 C 222.285156 57.664062 218.023438 56.597656 213.707031 55.738281 C 209.394531 54.882812 205.046875 54.238281 200.667969 53.804688 C 196.289062 53.375 191.898438 53.160156 187.5 53.160156 Z M 187.5 19.574219 " clip-rule="nonzero"/></clipPath><clipPath id="c8431e0645"><path d="M 19 20 L 356 20 L 356 356 L 19 356 Z M 19 20 " clip-rule="nonzero"/></clipPath><clipPath id="c3d166d1fb"><path d="M 206.160156 20.613281 C 209.488281 20.984375 212.804688 21.457031 216.109375 22.027344 C 219.410156 22.597656 222.695312 23.269531 225.957031 24.035156 C 229.21875 24.804688 232.457031 25.667969 235.667969 26.628906 C 238.878906 27.589844 242.054688 28.648438 245.203125 29.796875 C 248.351562 30.949219 251.460938 32.195312 254.535156 33.53125 C 257.605469 34.871094 260.636719 36.300781 263.625 37.820312 C 266.613281 39.339844 269.550781 40.945312 272.441406 42.640625 C 275.332031 44.335938 278.171875 46.117188 280.957031 47.980469 C 283.742188 49.847656 286.46875 51.792969 289.136719 53.820312 C 291.804688 55.851562 294.410156 57.957031 296.949219 60.140625 C 299.492188 62.324219 301.964844 64.585938 304.371094 66.917969 C 306.78125 69.25 309.113281 71.652344 311.378906 74.125 C 313.640625 76.597656 315.828125 79.136719 317.9375 81.738281 C 320.046875 84.339844 322.078125 87.003906 324.03125 89.730469 C 325.980469 92.457031 327.851562 95.238281 329.636719 98.074219 C 331.421875 100.910156 333.117188 103.796875 334.730469 106.738281 C 336.34375 109.675781 337.863281 112.660156 339.296875 115.6875 C 340.730469 118.71875 342.074219 121.789062 343.320312 124.898438 C 344.570312 128.007812 345.726562 131.152344 346.789062 134.332031 C 347.847656 137.511719 348.8125 140.71875 349.683594 143.957031 C 350.550781 147.191406 351.324219 150.453125 351.996094 153.734375 C 352.671875 157.019531 353.246094 160.320312 353.722656 163.636719 C 354.199219 166.953125 354.574219 170.285156 354.851562 173.625 C 355.128906 176.964844 355.304688 180.308594 355.382812 183.660156 C 355.460938 187.011719 355.4375 190.359375 355.3125 193.710938 C 355.1875 197.058594 354.964844 200.402344 354.640625 203.738281 C 354.316406 207.074219 353.890625 210.398438 353.371094 213.707031 C 352.847656 217.019531 352.226562 220.308594 351.503906 223.582031 C 350.785156 226.855469 349.96875 230.105469 349.050781 233.328125 C 348.136719 236.554688 347.128906 239.746094 346.019531 242.910156 C 344.914062 246.074219 343.714844 249.203125 342.421875 252.296875 C 341.128906 255.386719 339.746094 258.4375 338.269531 261.449219 C 336.792969 264.457031 335.230469 267.417969 333.574219 270.335938 C 331.921875 273.25 330.183594 276.113281 328.359375 278.925781 C 326.535156 281.734375 324.625 284.488281 322.636719 287.1875 C 320.648438 289.882812 318.578125 292.519531 316.429688 295.09375 C 314.285156 297.664062 312.0625 300.171875 309.765625 302.613281 C 307.464844 305.054688 305.097656 307.421875 302.660156 309.722656 C 300.21875 312.019531 297.714844 314.242188 295.140625 316.390625 C 292.570312 318.539062 289.933594 320.609375 287.238281 322.597656 C 284.542969 324.589844 281.789062 326.5 278.976562 328.324219 C 276.167969 330.148438 273.304688 331.890625 270.390625 333.542969 C 267.472656 335.199219 264.511719 336.765625 261.503906 338.242188 C 258.496094 339.71875 255.445312 341.105469 252.355469 342.398438 C 249.261719 343.691406 246.132812 344.894531 242.972656 346 C 239.808594 347.109375 236.613281 348.121094 233.390625 349.035156 C 230.167969 349.949219 226.917969 350.769531 223.644531 351.492188 C 220.371094 352.210938 217.078125 352.835938 213.769531 353.359375 C 210.460938 353.882812 207.136719 354.308594 203.800781 354.632812 C 200.464844 354.960938 197.121094 355.183594 193.773438 355.308594 C 190.421875 355.433594 187.074219 355.460938 183.722656 355.382812 C 180.371094 355.308594 177.027344 355.132812 173.6875 354.859375 C 170.347656 354.582031 167.015625 354.207031 163.699219 353.730469 C 160.382812 353.257812 157.082031 352.683594 153.796875 352.011719 C 150.515625 351.335938 147.253906 350.566406 144.015625 349.699219 C 140.78125 348.832031 137.570312 347.867188 134.390625 346.808594 C 131.210938 345.746094 128.066406 344.59375 124.957031 343.34375 C 121.847656 342.097656 118.777344 340.757812 115.746094 339.324219 C 112.714844 337.894531 109.730469 336.371094 106.792969 334.761719 C 103.851562 333.148438 100.964844 331.453125 98.125 329.667969 C 95.289062 327.886719 92.507812 326.019531 89.78125 324.066406 C 87.054688 322.117188 84.390625 320.085938 81.789062 317.976562 C 79.183594 315.867188 76.644531 313.679688 74.171875 311.417969 C 71.699219 309.15625 69.292969 306.824219 66.960938 304.417969 C 64.628906 302.011719 62.367188 299.539062 60.183594 296.996094 C 57.996094 294.457031 55.890625 291.851562 53.859375 289.183594 C 51.832031 286.519531 49.882812 283.792969 48.015625 281.007812 C 46.148438 278.226562 44.367188 275.386719 42.671875 272.496094 C 40.976562 269.605469 39.367188 266.667969 37.847656 263.679688 C 36.328125 260.695312 34.898438 257.664062 33.558594 254.59375 C 32.21875 251.519531 30.972656 248.410156 29.820312 245.261719 C 28.667969 242.117188 27.609375 238.9375 26.648438 235.726562 C 25.683594 232.515625 24.820312 229.28125 24.050781 226.019531 C 23.28125 222.753906 22.609375 219.472656 22.039062 216.171875 C 21.464844 212.867188 20.992188 209.550781 20.621094 206.222656 C 20.246094 202.890625 19.972656 199.550781 19.796875 196.203125 C 19.625 192.859375 19.550781 189.507812 19.578125 186.15625 C 19.605469 182.804688 19.730469 179.457031 19.960938 176.113281 C 20.1875 172.769531 20.515625 169.4375 20.941406 166.113281 C 21.367188 162.789062 21.894531 159.480469 22.519531 156.1875 C 23.144531 152.894531 23.867188 149.621094 24.6875 146.371094 C 25.507812 143.121094 26.425781 139.902344 27.4375 136.707031 C 28.453125 133.511719 29.5625 130.351562 30.765625 127.222656 C 31.96875 124.09375 33.261719 121.003906 34.652344 117.953125 C 36.039062 114.902344 37.515625 111.898438 39.085938 108.933594 C 40.652344 105.972656 42.308594 103.058594 44.050781 100.195312 C 45.792969 97.332031 47.621094 94.527344 49.53125 91.773438 C 51.441406 89.019531 53.433594 86.324219 55.503906 83.691406 C 57.574219 81.054688 59.726562 78.484375 61.949219 75.980469 C 64.175781 73.472656 66.476562 71.035156 68.847656 68.667969 C 71.21875 66.300781 73.660156 64.003906 76.167969 61.78125 C 78.675781 59.5625 81.25 57.417969 83.886719 55.347656 C 86.527344 53.28125 89.222656 51.292969 91.980469 49.386719 C 94.734375 47.480469 97.546875 45.65625 100.414062 43.917969 C 103.277344 42.179688 106.191406 40.53125 109.15625 38.96875 C 112.121094 37.402344 115.132812 35.929688 118.183594 34.546875 C 119.1875 34.089844 120.226562 33.738281 121.300781 33.488281 C 122.375 33.238281 123.460938 33.09375 124.566406 33.058594 C 125.667969 33.023438 126.761719 33.09375 127.847656 33.273438 C 128.9375 33.453125 129.996094 33.738281 131.03125 34.125 C 132.0625 34.511719 133.046875 35 133.980469 35.582031 C 134.917969 36.164062 135.789062 36.832031 136.59375 37.585938 C 137.398438 38.339844 138.121094 39.164062 138.765625 40.058594 C 139.40625 40.957031 139.957031 41.90625 140.410156 42.910156 C 140.867188 43.914062 141.21875 44.953125 141.46875 46.027344 C 141.71875 47.101562 141.863281 48.1875 141.898438 49.292969 C 141.933594 50.394531 141.863281 51.488281 141.683594 52.574219 C 141.503906 53.664062 141.21875 54.722656 140.832031 55.757812 C 140.445312 56.789062 139.957031 57.773438 139.375 58.707031 C 138.792969 59.644531 138.125 60.515625 137.371094 61.320312 C 136.617188 62.125 135.792969 62.847656 134.898438 63.492188 C 134 64.132812 133.050781 64.683594 132.046875 65.136719 C 129.605469 66.242188 127.199219 67.421875 124.828125 68.671875 C 122.453125 69.925781 120.121094 71.246094 117.828125 72.636719 C 115.539062 74.027344 113.289062 75.484375 111.082031 77.007812 C 108.878906 78.535156 106.71875 80.125 104.609375 81.777344 C 102.5 83.433594 100.441406 85.148438 98.433594 86.925781 C 96.425781 88.703125 94.476562 90.539062 92.578125 92.433594 C 90.679688 94.328125 88.839844 96.277344 87.058594 98.285156 C 85.28125 100.289062 83.5625 102.34375 81.902344 104.453125 C 80.246094 106.558594 78.652344 108.714844 77.125 110.917969 C 75.597656 113.121094 74.132812 115.367188 72.742188 117.65625 C 71.347656 119.949219 70.023438 122.277344 68.769531 124.648438 C 67.511719 127.015625 66.332031 129.421875 65.222656 131.863281 C 64.109375 134.304688 63.074219 136.773438 62.113281 139.277344 C 61.148438 141.78125 60.261719 144.308594 59.453125 146.863281 C 58.640625 149.421875 57.90625 152 57.25 154.597656 C 56.59375 157.199219 56.015625 159.816406 55.515625 162.449219 C 55.015625 165.082031 54.59375 167.730469 54.253906 170.390625 C 53.910156 173.046875 53.648438 175.714844 53.46875 178.390625 C 53.285156 181.066406 53.183594 183.746094 53.164062 186.425781 C 53.140625 189.105469 53.199219 191.785156 53.339844 194.464844 C 53.476562 197.140625 53.695312 199.8125 53.996094 202.476562 C 54.292969 205.140625 54.671875 207.792969 55.128906 210.4375 C 55.589844 213.078125 56.125 215.703125 56.738281 218.3125 C 57.355469 220.925781 58.046875 223.511719 58.816406 226.082031 C 59.585938 228.648438 60.433594 231.191406 61.355469 233.710938 C 62.277344 236.226562 63.273438 238.714844 64.347656 241.171875 C 65.417969 243.632812 66.5625 246.054688 67.777344 248.445312 C 68.996094 250.835938 70.28125 253.183594 71.636719 255.496094 C 72.996094 257.808594 74.421875 260.078125 75.914062 262.308594 C 77.40625 264.535156 78.964844 266.714844 80.589844 268.847656 C 82.210938 270.980469 83.898438 273.066406 85.644531 275.097656 C 87.394531 277.132812 89.203125 279.109375 91.070312 281.035156 C 92.9375 282.960938 94.859375 284.828125 96.835938 286.636719 C 98.816406 288.445312 100.847656 290.195312 102.929688 291.882812 C 105.011719 293.570312 107.144531 295.195312 109.324219 296.753906 C 111.507812 298.3125 113.730469 299.808594 116 301.234375 C 118.273438 302.660156 120.582031 304.019531 122.933594 305.308594 C 125.285156 306.597656 127.671875 307.8125 130.097656 308.960938 C 132.519531 310.105469 134.976562 311.179688 137.464844 312.175781 C 139.953125 313.175781 142.46875 314.097656 145.011719 314.945312 C 147.558594 315.792969 150.125 316.566406 152.714844 317.257812 C 155.304688 317.953125 157.910156 318.570312 160.539062 319.109375 C 163.164062 319.644531 165.804688 320.105469 168.460938 320.484375 C 171.113281 320.867188 173.777344 321.164062 176.449219 321.386719 C 179.121094 321.605469 181.796875 321.746094 184.476562 321.808594 C 187.160156 321.867188 189.839844 321.847656 192.519531 321.746094 C 195.199219 321.648438 197.871094 321.46875 200.539062 321.207031 C 203.210938 320.945312 205.867188 320.605469 208.515625 320.1875 C 211.164062 319.769531 213.796875 319.269531 216.414062 318.691406 C 219.035156 318.117188 221.632812 317.460938 224.210938 316.726562 C 226.792969 315.996094 229.347656 315.1875 231.878906 314.300781 C 234.40625 313.414062 236.910156 312.453125 239.382812 311.417969 C 241.855469 310.382812 244.296875 309.273438 246.703125 308.09375 C 249.109375 306.910156 251.480469 305.660156 253.8125 304.335938 C 256.144531 303.011719 258.433594 301.621094 260.683594 300.160156 C 262.929688 298.699219 265.132812 297.171875 267.289062 295.578125 C 269.449219 293.988281 271.554688 292.332031 273.613281 290.613281 C 275.671875 288.894531 277.675781 287.117188 279.628906 285.277344 C 281.578125 283.4375 283.472656 281.542969 285.3125 279.589844 C 287.148438 277.636719 288.925781 275.632812 290.644531 273.574219 C 292.363281 271.515625 294.019531 269.40625 295.609375 267.25 C 297.203125 265.09375 298.726562 262.886719 300.1875 260.640625 C 301.648438 258.390625 303.039062 256.101562 304.359375 253.765625 C 305.683594 251.433594 306.933594 249.066406 308.117188 246.65625 C 309.296875 244.25 310.402344 241.808594 311.4375 239.335938 C 312.472656 236.863281 313.433594 234.359375 314.316406 231.828125 C 315.203125 229.296875 316.011719 226.742188 316.742188 224.164062 C 317.472656 221.585938 318.128906 218.984375 318.703125 216.367188 C 319.28125 213.746094 319.777344 211.113281 320.195312 208.464844 C 320.613281 205.816406 320.953125 203.160156 321.210938 200.488281 C 321.472656 197.820312 321.652344 195.148438 321.75 192.46875 C 321.847656 189.789062 321.867188 187.109375 321.804688 184.429688 C 321.746094 181.746094 321.605469 179.070312 321.382812 176.398438 C 321.160156 173.726562 320.859375 171.0625 320.476562 168.410156 C 320.097656 165.753906 319.636719 163.117188 319.097656 160.488281 C 318.558594 157.863281 317.941406 155.253906 317.246094 152.664062 C 316.550781 150.074219 315.78125 147.507812 314.929688 144.964844 C 314.082031 142.421875 313.15625 139.90625 312.15625 137.417969 C 311.15625 134.929688 310.085938 132.472656 308.9375 130.050781 C 307.792969 127.628906 306.574219 125.238281 305.285156 122.890625 C 303.996094 120.539062 302.636719 118.226562 301.207031 115.957031 C 299.78125 113.6875 298.285156 111.464844 296.726562 109.285156 C 295.164062 107.105469 293.539062 104.972656 291.851562 102.890625 C 290.160156 100.808594 288.410156 98.777344 286.601562 96.800781 C 284.792969 94.820312 282.921875 92.898438 281 91.035156 C 279.074219 89.167969 277.09375 87.359375 275.058594 85.613281 C 273.027344 83.867188 270.941406 82.179688 268.808594 80.558594 C 266.671875 78.933594 264.492188 77.378906 262.265625 75.886719 C 260.039062 74.394531 257.765625 72.96875 255.453125 71.613281 C 253.140625 70.257812 250.789062 68.96875 248.398438 67.753906 C 246.011719 66.539062 243.585938 65.394531 241.128906 64.324219 C 238.667969 63.253906 236.179688 62.261719 233.664062 61.339844 C 231.144531 60.417969 228.601562 59.570312 226.03125 58.804688 C 223.464844 58.035156 220.875 57.34375 218.265625 56.726562 C 215.65625 56.113281 213.027344 55.578125 210.386719 55.121094 C 207.746094 54.664062 205.089844 54.289062 202.425781 53.988281 C 201.332031 53.867188 200.257812 53.640625 199.207031 53.304688 C 198.15625 52.972656 197.148438 52.539062 196.183594 52.003906 C 195.21875 51.472656 194.3125 50.851562 193.46875 50.140625 C 192.625 49.429688 191.859375 48.644531 191.171875 47.78125 C 190.484375 46.921875 189.886719 46 189.378906 45.023438 C 188.871094 44.042969 188.464844 43.023438 188.160156 41.964844 C 187.855469 40.90625 187.652344 39.824219 187.5625 38.726562 C 187.46875 37.628906 187.480469 36.53125 187.605469 35.4375 C 187.726562 34.339844 187.953125 33.265625 188.289062 32.214844 C 188.621094 31.164062 189.054688 30.15625 189.589844 29.191406 C 190.121094 28.226562 190.742188 27.320312 191.453125 26.476562 C 192.164062 25.636719 192.949219 24.871094 193.8125 24.179688 C 194.671875 23.492188 195.59375 22.894531 196.574219 22.386719 C 197.550781 21.882812 198.570312 21.476562 199.628906 21.167969 C 200.6875 20.863281 201.769531 20.664062 202.867188 20.570312 C 203.964844 20.476562 205.0625 20.488281 206.160156 20.613281 Z M 206.160156 20.613281 " clip-rule="nonzero"/></clipPath></defs><g fill="#ffffff" fill-opacity="1"><g transform="translate(125.988277, 207.817106)"><g><path d="M 12.015625 -11.78125 C 12.410156 -9.789062 13.257812 -8.28125 14.5625 -7.25 C 15.875 -6.21875 17.644531 -5.703125 19.875 -5.703125 C 22.6875 -5.703125 24.742188 -6.8125 26.046875 -9.03125 C 27.359375 -11.257812 28.015625 -15.050781 28.015625 -20.40625 C 27.066406 -19.050781 25.726562 -18.007812 24 -17.28125 C 22.28125 -16.550781 20.40625 -16.1875 18.375 -16.1875 C 15.800781 -16.1875 13.460938 -16.707031 11.359375 -17.75 C 9.253906 -18.800781 7.597656 -20.367188 6.390625 -22.453125 C 5.179688 -24.535156 4.578125 -27.066406 4.578125 -30.046875 C 4.578125 -34.398438 5.851562 -37.875 8.40625 -40.46875 C 10.96875 -43.070312 14.488281 -44.375 18.96875 -44.375 C 24.363281 -44.375 28.203125 -42.578125 30.484375 -38.984375 C 32.765625 -35.398438 33.90625 -29.898438 33.90625 -22.484375 C 33.90625 -17.367188 33.476562 -13.1875 32.625 -9.9375 C 31.769531 -6.6875 30.289062 -4.226562 28.1875 -2.5625 C 26.09375 -0.894531 23.179688 -0.0625 19.453125 -0.0625 C 15.210938 -0.0625 11.941406 -1.171875 9.640625 -3.390625 C 7.335938 -5.609375 6.046875 -8.40625 5.765625 -11.78125 Z M 19.578125 -21.890625 C 21.953125 -21.890625 23.820312 -22.632812 25.1875 -24.125 C 26.5625 -25.613281 27.25 -27.585938 27.25 -30.046875 C 27.25 -32.773438 26.523438 -34.898438 25.078125 -36.421875 C 23.628906 -37.953125 21.65625 -38.71875 19.15625 -38.71875 C 16.65625 -38.71875 14.679688 -37.9375 13.234375 -36.375 C 11.785156 -34.8125 11.0625 -32.757812 11.0625 -30.21875 C 11.0625 -27.800781 11.765625 -25.804688 13.171875 -24.234375 C 14.578125 -22.671875 16.710938 -21.890625 19.578125 -21.890625 Z M 19.578125 -21.890625 "/></g></g></g><g fill="#ffffff" fill-opacity="1"><g transform="translate(163.762638, 207.817106)"><g><path d="M 31.53125 -37.53125 L 11.59375 -37.53125 L 11.59375 -25.703125 C 12.425781 -26.804688 13.664062 -27.734375 15.3125 -28.484375 C 16.957031 -29.242188 18.710938 -29.625 20.578125 -29.625 C 23.910156 -29.625 26.617188 -28.910156 28.703125 -27.484375 C 30.785156 -26.054688 32.269531 -24.25 33.15625 -22.0625 C 34.050781 -19.882812 34.5 -17.585938 34.5 -15.171875 C 34.5 -12.234375 33.929688 -9.625 32.796875 -7.34375 C 31.671875 -5.0625 29.988281 -3.265625 27.75 -1.953125 C 25.507812 -0.648438 22.765625 0 19.515625 0 C 15.191406 0 11.71875 -1.066406 9.09375 -3.203125 C 6.476562 -5.347656 4.914062 -8.1875 4.40625 -11.71875 L 11 -11.71875 C 11.4375 -9.851562 12.410156 -8.375 13.921875 -7.28125 C 15.429688 -6.195312 17.316406 -5.65625 19.578125 -5.65625 C 22.390625 -5.65625 24.5 -6.503906 25.90625 -8.203125 C 27.3125 -9.910156 28.015625 -12.171875 28.015625 -14.984375 C 28.015625 -17.835938 27.300781 -20.03125 25.875 -21.5625 C 24.445312 -23.09375 22.347656 -23.859375 19.578125 -23.859375 C 17.628906 -23.859375 15.988281 -23.367188 14.65625 -22.390625 C 13.332031 -21.421875 12.375 -20.101562 11.78125 -18.4375 L 5.359375 -18.4375 L 5.359375 -43.484375 L 31.53125 -43.484375 Z M 31.53125 -37.53125 "/></g></g></g><g fill="#ffffff" fill-opacity="1"><g transform="translate(201.774951, 207.817106)"><g><path d="M 2.5 -32.890625 C 2.5 -35.785156 3.335938 -38.054688 5.015625 -39.703125 C 6.703125 -41.347656 8.878906 -42.171875 11.546875 -42.171875 C 14.203125 -42.171875 16.367188 -41.347656 18.046875 -39.703125 C 19.734375 -38.054688 20.578125 -35.785156 20.578125 -32.890625 C 20.578125 -29.992188 19.734375 -27.710938 18.046875 -26.046875 C 16.367188 -24.390625 14.203125 -23.5625 11.546875 -23.5625 C 8.878906 -23.5625 6.703125 -24.390625 5.015625 -26.046875 C 3.335938 -27.710938 2.5 -29.992188 2.5 -32.890625 Z M 38.78125 -41.40625 L 15.046875 0 L 8.390625 0 L 32.125 -41.40625 Z M 11.546875 -38.0625 C 9.046875 -38.0625 7.796875 -36.335938 7.796875 -32.890625 C 7.796875 -29.398438 9.046875 -27.65625 11.546875 -27.65625 C 12.734375 -27.65625 13.648438 -28.082031 14.296875 -28.9375 C 14.953125 -29.789062 15.28125 -31.109375 15.28125 -32.890625 C 15.28125 -36.335938 14.035156 -38.0625 11.546875 -38.0625 Z M 26.703125 -8.5625 C 26.703125 -11.457031 27.546875 -13.726562 29.234375 -15.375 C 30.921875 -17.019531 33.09375 -17.84375 35.75 -17.84375 C 38.363281 -17.84375 40.515625 -17.019531 42.203125 -15.375 C 43.890625 -13.726562 44.734375 -11.457031 44.734375 -8.5625 C 44.734375 -5.664062 43.890625 -3.382812 42.203125 -1.71875 C 40.515625 -0.0625 38.363281 0.765625 35.75 0.765625 C 33.09375 0.765625 30.921875 -0.0625 29.234375 -1.71875 C 27.546875 -3.382812 26.703125 -5.664062 26.703125 -8.5625 Z M 35.6875 -13.734375 C 33.1875 -13.734375 31.9375 -12.007812 31.9375 -8.5625 C 31.9375 -5.113281 33.1875 -3.390625 35.6875 -3.390625 C 38.1875 -3.390625 39.4375 -5.113281 39.4375 -8.5625 C 39.4375 -12.007812 38.1875 -13.734375 35.6875 -13.734375 Z M 35.6875 -13.734375 "/></g></g></g><g clip-path="url(#5ff3865cb9)"><g clip-path="url(#8258f72eb6)"><path fill="#000000" d="M 19.574219 19.574219 L 355.425781 19.574219 L 355.425781 355.425781 L 19.574219 355.425781 Z M 19.574219 19.574219 " fill-opacity="1" fill-rule="nonzero"/></g></g><g clip-path="url(#c8431e0645)"><g clip-path="url(#c3d166d1fb)"><path fill="#8c52ff" d="M 19.574219 19.574219 L 355.425781 19.574219 L 355.425781 355.425781 L 19.574219 355.425781 Z M 19.574219 19.574219 " fill-opacity="1" fill-rule="nonzero"/></g></g></svg>